<?xml version="1.0" encoding="UTF-8" standalone="no"?>
<!DOCTYPE svg PUBLIC "-//W3C//DTD SVG 1.1//EN"
 "http://www.w3.org/Graphics/SVG/1.1/DTD/svg11.dtd">
<!-- Generated by graphviz version 2.43.0 (0)
 -->
<!-- Title: %3 Pages: 1 -->
<svg width="852pt" height="400pt"
 viewBox="0.00 0.00 852.00 400.00" xmlns="http://www.w3.org/2000/svg" xmlns:xlink="http://www.w3.org/1999/xlink">
<g id="graph0" class="graph" transform="scale(1 1) rotate(0) translate(4 396)">
<title>%3</title>
<polygon fill="white" stroke="transparent" points="-4,4 -4,-396 848,-396 848,4 -4,4"/>
<!-- F.P. Básica -->
<g id="node1" class="node">
<title>F.P. Básica</title>
<polygon fill="none" stroke="black" points="311.5,-386 252.5,-386 252.5,-362 311.5,-362 311.5,-356 329.5,-374 311.5,-392 311.5,-386"/>
<text text-anchor="middle" x="291" y="-370.3" font-family="Times,serif" font-size="14.00">F.P. Básica</text>
</g>
<!-- Grado Medio -->
<g id="node2" class="node">
<title>Grado Medio</title>
<polygon fill="none" stroke="black" points="318,-278 246,-278 246,-254 318,-254 318,-248 336,-266 318,-284 318,-278"/>
<text text-anchor="middle" x="291" y="-262.3" font-family="Times,serif" font-size="14.00">Grado Medio</text>
</g>
<!-- F.P. Básica&#45;&gt;Grado Medio -->
<g id="edge1" class="edge">
<title>F.P. Básica&#45;&gt;Grado Medio</title>
<path fill="none" stroke="black" d="M291,-355.97C291,-339.38 291,-313.88 291,-294.43"/>
<polygon fill="black" stroke="black" points="294.5,-294.34 291,-284.34 287.5,-294.34 294.5,-294.34"/>
</g>
<!-- Mantenimiento básico en pequeña oficina -->
<g id="node3" class="node">
<title>Mantenimiento básico en pequeña oficina</title>
<path fill="none" stroke="black" d="M598.5,-392C598.5,-392 377.5,-392 377.5,-392 371.5,-392 365.5,-386 365.5,-380 365.5,-380 365.5,-368 365.5,-368 365.5,-362 371.5,-356 377.5,-356 377.5,-356 598.5,-356 598.5,-356 604.5,-356 610.5,-362 610.5,-368 610.5,-368 610.5,-380 610.5,-380 610.5,-386 604.5,-392 598.5,-392"/>
<text text-anchor="middle" x="488" y="-370.3" font-family="Times,serif" font-size="14.00">Mantenimiento básico en pequeña oficina</text>
</g>
<!-- F.P. Básica&#45;&gt;Mantenimiento básico en pequeña oficina -->
<g id="edge2" class="edge">
<title>F.P. Básica&#45;&gt;Mantenimiento básico en pequeña oficina</title>
<path fill="none" stroke="black" d="M329.86,-374C338.28,-374 346.7,-374 355.11,-374"/>
<polygon fill="black" stroke="black" points="355.38,-377.5 365.38,-374 355.38,-370.5 355.38,-377.5"/>
</g>
<!-- Grado Superior (ASIR) -->
<g id="node4" class="node">
<title>Grado Superior (ASIR)</title>
<polygon fill="none" stroke="black" points="126,-170 0,-170 0,-146 126,-146 126,-140 144,-158 126,-176 126,-170"/>
<text text-anchor="middle" x="72" y="-154.3" font-family="Times,serif" font-size="14.00">Grado Superior (ASIR)</text>
</g>
<!-- Grado Medio&#45;&gt;Grado Superior (ASIR) -->
<g id="edge3" class="edge">
<title>Grado Medio&#45;&gt;Grado Superior (ASIR)</title>
<path fill="none" stroke="black" d="M255.81,-247.97C218.01,-229.67 157.84,-200.55 116.71,-180.64"/>
<polygon fill="black" stroke="black" points="117.99,-177.37 107.46,-176.16 114.94,-183.67 117.99,-177.37"/>
</g>
<!-- Grado Superior (DAM y DAW) -->
<g id="node5" class="node">
<title>Grado Superior (DAM y DAW)</title>
<polygon fill="none" stroke="black" points="588,-170 414,-170 414,-146 588,-146 588,-140 606,-158 588,-176 588,-170"/>
<text text-anchor="middle" x="510" y="-154.3" font-family="Times,serif" font-size="14.00">Grado Superior (DAM y DAW)</text>
</g>
<!-- Grado Medio&#45;&gt;Grado Superior (DAM y DAW) -->
<g id="edge4" class="edge">
<title>Grado Medio&#45;&gt;Grado Superior (DAM y DAW)</title>
<path fill="none" stroke="black" d="M326.19,-247.97C363.99,-229.67 424.16,-200.55 465.29,-180.64"/>
<polygon fill="black" stroke="black" points="467.06,-183.67 474.54,-176.16 464.01,-177.37 467.06,-183.67"/>
</g>
<!-- Mantenimiento de sistemas informáticos -->
<g id="node6" class="node">
<title>Mantenimiento de sistemas informáticos</title>
<path fill="none" stroke="black" d="M600,-284C600,-284 384,-284 384,-284 378,-284 372,-278 372,-272 372,-272 372,-260 372,-260 372,-254 378,-248 384,-248 384,-248 600,-248 600,-248 606,-248 612,-254 612,-260 612,-260 612,-272 612,-272 612,-278 606,-284 600,-284"/>
<text text-anchor="middle" x="492" y="-262.3" font-family="Times,serif" font-size="14.00">Mantenimiento de sistemas informáticos</text>
</g>
<!-- Grado Medio&#45;&gt;Mantenimiento de sistemas informáticos -->
<g id="edge5" class="edge">
<title>Grado Medio&#45;&gt;Mantenimiento de sistemas informáticos</title>
<path fill="none" stroke="black" d="M336.15,-266C344.68,-266 353.21,-266 361.74,-266"/>
<polygon fill="black" stroke="black" points="361.76,-269.5 371.76,-266 361.76,-262.5 361.76,-269.5"/>
</g>
<!-- Implantación de nuevos sistemas -->
<g id="node7" class="node">
<title>Implantación de nuevos sistemas</title>
<path fill="none" stroke="black" d="M365.5,-176C365.5,-176 192.5,-176 192.5,-176 186.5,-176 180.5,-170 180.5,-164 180.5,-164 180.5,-152 180.5,-152 180.5,-146 186.5,-140 192.5,-140 192.5,-140 365.5,-140 365.5,-140 371.5,-140 377.5,-146 377.5,-152 377.5,-152 377.5,-164 377.5,-164 377.5,-170 371.5,-176 365.5,-176"/>
<text text-anchor="middle" x="279" y="-154.3" font-family="Times,serif" font-size="14.00">Implantación de nuevos sistemas</text>
</g>
<!-- Grado Superior (ASIR)&#45;&gt;Implantación de nuevos sistemas -->
<g id="edge6" class="edge">
<title>Grado Superior (ASIR)&#45;&gt;Implantación de nuevos sistemas</title>
<path fill="none" stroke="black" d="M144.37,-158C153,-158 161.63,-158 170.26,-158"/>
<polygon fill="black" stroke="black" points="170.39,-161.5 180.39,-158 170.39,-154.5 170.39,-161.5"/>
</g>
<!-- Cursos de especialización\nVideojuegos\nBigdata\nSeguridad -->
<g id="node9" class="node">
<title>Cursos de especialización\nVideojuegos\nBigdata\nSeguridad</title>
<path fill="none" stroke="black" d="M356.5,-68C356.5,-68 223.5,-68 223.5,-68 217.5,-68 211.5,-62 211.5,-56 211.5,-56 211.5,-12 211.5,-12 211.5,-6 217.5,0 223.5,0 223.5,0 356.5,0 356.5,0 362.5,0 368.5,-6 368.5,-12 368.5,-12 368.5,-56 368.5,-56 368.5,-62 362.5,-68 356.5,-68"/>
<text text-anchor="middle" x="290" y="-52.8" font-family="Times,serif" font-size="14.00">Cursos de especialización</text>
<text text-anchor="middle" x="290" y="-37.8" font-family="Times,serif" font-size="14.00">Videojuegos</text>
<text text-anchor="middle" x="290" y="-22.8" font-family="Times,serif" font-size="14.00">Bigdata</text>
<text text-anchor="middle" x="290" y="-7.8" font-family="Times,serif" font-size="14.00">Seguridad</text>
</g>
<!-- Grado Superior (ASIR)&#45;&gt;Cursos de especialización\nVideojuegos\nBigdata\nSeguridad -->
<g id="edge11" class="edge">
<title>Grado Superior (ASIR)&#45;&gt;Cursos de especialización\nVideojuegos\nBigdata\nSeguridad</title>
<path fill="none" stroke="black" d="M102.77,-139.78C133.54,-122.56 181.89,-95.5 221.75,-73.2"/>
<polygon fill="black" stroke="black" points="223.62,-76.16 230.64,-68.22 220.2,-70.05 223.62,-76.16"/>
</g>
<!-- Universidad (sistemas) -->
<g id="node11" class="node">
<title>Universidad (sistemas)</title>
<path fill="none" stroke="black" d="M131,-52C131,-52 13,-52 13,-52 7,-52 1,-46 1,-40 1,-40 1,-28 1,-28 1,-22 7,-16 13,-16 13,-16 131,-16 131,-16 137,-16 143,-22 143,-28 143,-28 143,-40 143,-40 143,-46 137,-52 131,-52"/>
<text text-anchor="middle" x="72" y="-30.3" font-family="Times,serif" font-size="14.00">Universidad (sistemas)</text>
</g>
<!-- Grado Superior (ASIR)&#45;&gt;Universidad (sistemas) -->
<g id="edge10" class="edge">
<title>Grado Superior (ASIR)&#45;&gt;Universidad (sistemas)</title>
<path fill="none" stroke="black" d="M72,-139.78C72,-119.62 72,-85.96 72,-62.25"/>
<polygon fill="black" stroke="black" points="75.5,-62.13 72,-52.13 68.5,-62.13 75.5,-62.13"/>
</g>
<!-- Universidad (desarrollo) -->
<g id="node8" class="node">
<title>Universidad (desarrollo)</title>
<path fill="none" stroke="black" d="M572.5,-52C572.5,-52 447.5,-52 447.5,-52 441.5,-52 435.5,-46 435.5,-40 435.5,-40 435.5,-28 435.5,-28 435.5,-22 441.5,-16 447.5,-16 447.5,-16 572.5,-16 572.5,-16 578.5,-16 584.5,-22 584.5,-28 584.5,-28 584.5,-40 584.5,-40 584.5,-46 578.5,-52 572.5,-52"/>
<text text-anchor="middle" x="510" y="-30.3" font-family="Times,serif" font-size="14.00">Universidad (desarrollo)</text>
</g>
<!-- Grado Superior (DAM y DAW)&#45;&gt;Universidad (desarrollo) -->
<g id="edge7" class="edge">
<title>Grado Superior (DAM y DAW)&#45;&gt;Universidad (desarrollo)</title>
<path fill="none" stroke="black" d="M510,-139.78C510,-119.62 510,-85.96 510,-62.25"/>
<polygon fill="black" stroke="black" points="513.5,-62.13 510,-52.13 506.5,-62.13 513.5,-62.13"/>
</g>
<!-- Grado Superior (DAM y DAW)&#45;&gt;Cursos de especialización\nVideojuegos\nBigdata\nSeguridad -->
<g id="edge8" class="edge">
<title>Grado Superior (DAM y DAW)&#45;&gt;Cursos de especialización\nVideojuegos\nBigdata\nSeguridad</title>
<path fill="none" stroke="black" d="M478.95,-139.78C447.89,-122.56 399.1,-95.5 358.88,-73.2"/>
<polygon fill="black" stroke="black" points="360.35,-70.01 349.91,-68.22 356.96,-76.13 360.35,-70.01"/>
</g>
<!-- Programación de nuevos sistemas -->
<g id="node10" class="node">
<title>Programación de nuevos sistemas</title>
<path fill="none" stroke="black" d="M832,-176C832,-176 654,-176 654,-176 648,-176 642,-170 642,-164 642,-164 642,-152 642,-152 642,-146 648,-140 654,-140 654,-140 832,-140 832,-140 838,-140 844,-146 844,-152 844,-152 844,-164 844,-164 844,-170 838,-176 832,-176"/>
<text text-anchor="middle" x="743" y="-154.3" font-family="Times,serif" font-size="14.00">Programación de nuevos sistemas</text>
</g>
<!-- Grado Superior (DAM y DAW)&#45;&gt;Programación de nuevos sistemas -->
<g id="edge9" class="edge">
<title>Grado Superior (DAM y DAW)&#45;&gt;Programación de nuevos sistemas</title>
<path fill="none" stroke="black" d="M606.02,-158C614.61,-158 623.2,-158 631.79,-158"/>
<polygon fill="black" stroke="black" points="631.87,-161.5 641.87,-158 631.87,-154.5 631.87,-161.5"/>
</g>
</g>
</svg>
