<?xml version="1.0" encoding="UTF-8" standalone="no"?>
<!DOCTYPE svg PUBLIC "-//W3C//DTD SVG 1.1//EN"
 "http://www.w3.org/Graphics/SVG/1.1/DTD/svg11.dtd">
<!-- Generated by graphviz version 8.1.0 (20230707.0739)
 -->
<!-- Pages: 1 -->
<svg width="645pt" height="805pt"
 viewBox="0.00 0.00 645.44 805.00" xmlns="http://www.w3.org/2000/svg" xmlns:xlink="http://www.w3.org/1999/xlink">
<g id="graph0" class="graph" transform="scale(1 1) rotate(0) translate(4 801)">
<polygon fill="white" stroke="none" points="-4,4 -4,-801 641.44,-801 641.44,4 -4,4"/>
<!-- Descomprimir -->
<g id="node1" class="node">
<title>Descomprimir</title>
<ellipse fill="none" stroke="black" cx="181.71" cy="-779" rx="65.17" ry="18"/>
<text text-anchor="middle" x="181.71" y="-773.95" font-family="Times,serif" font-size="14.00">Descomprimir</text>
</g>
<!-- Instalar -->
<g id="node2" class="node">
<title>Instalar</title>
<ellipse fill="none" stroke="black" cx="181.71" cy="-706" rx="38.56" ry="18"/>
<text text-anchor="middle" x="181.71" y="-700.95" font-family="Times,serif" font-size="14.00">Instalar</text>
</g>
<!-- Descomprimir&#45;&gt;Instalar -->
<g id="edge1" class="edge">
<title>Descomprimir&#45;&gt;Instalar</title>
<path fill="none" stroke="black" d="M181.71,-760.81C181.71,-753.05 181.71,-743.68 181.71,-734.95"/>
<polygon fill="black" stroke="black" points="185.21,-735.03 181.71,-725.03 178.21,-735.03 185.21,-735.03"/>
</g>
<!-- Paquetes_como_root -->
<g id="node3" class="node">
<title>Paquetes_como_root</title>
<ellipse fill="none" stroke="black" cx="88.71" cy="-633" rx="88.71" ry="18"/>
<text text-anchor="middle" x="88.71" y="-627.95" font-family="Times,serif" font-size="14.00">Paquetes_como_root</text>
</g>
<!-- Instalar&#45;&gt;Paquetes_como_root -->
<g id="edge2" class="edge">
<title>Instalar&#45;&gt;Paquetes_como_root</title>
<path fill="none" stroke="black" d="M162.44,-690.29C149.93,-680.74 133.36,-668.08 119.09,-657.19"/>
<polygon fill="black" stroke="black" points="121.64,-653.97 111.57,-650.68 117.39,-659.53 121.64,-653.97"/>
</g>
<!-- Scripts_como_root -->
<g id="node4" class="node">
<title>Scripts_como_root</title>
<ellipse fill="none" stroke="black" cx="276.71" cy="-633" rx="81.55" ry="18"/>
<text text-anchor="middle" x="276.71" y="-627.95" font-family="Times,serif" font-size="14.00">Scripts_como_root</text>
</g>
<!-- Instalar&#45;&gt;Scripts_como_root -->
<g id="edge3" class="edge">
<title>Instalar&#45;&gt;Scripts_como_root</title>
<path fill="none" stroke="black" d="M201.4,-690.29C214.18,-680.74 231.11,-668.08 245.68,-657.19"/>
<polygon fill="black" stroke="black" points="247.48,-659.47 253.39,-650.68 243.29,-653.87 247.48,-659.47"/>
</g>
<!-- Software_instalado -->
<g id="node5" class="node">
<title>Software_instalado</title>
<ellipse fill="none" stroke="black" cx="181.71" cy="-560" rx="82.06" ry="18"/>
<text text-anchor="middle" x="181.71" y="-554.95" font-family="Times,serif" font-size="14.00">Software_instalado</text>
</g>
<!-- Paquetes_como_root&#45;&gt;Software_instalado -->
<g id="edge4" class="edge">
<title>Paquetes_como_root&#45;&gt;Software_instalado</title>
<path fill="none" stroke="black" d="M110.75,-615.17C122.91,-605.89 138.2,-594.22 151.46,-584.1"/>
<polygon fill="black" stroke="black" points="153.01,-586.56 158.83,-577.71 148.76,-580.99 153.01,-586.56"/>
</g>
<!-- Scripts_como_root&#45;&gt;Software_instalado -->
<g id="edge5" class="edge">
<title>Scripts_como_root&#45;&gt;Software_instalado</title>
<path fill="none" stroke="black" d="M254.68,-615.53C242.18,-606.19 226.34,-594.35 212.61,-584.09"/>
<polygon fill="black" stroke="black" points="215.06,-580.81 204.96,-577.62 210.87,-586.41 215.06,-580.81"/>
</g>
<!-- Variables_en_bash -->
<g id="node6" class="node">
<title>Variables_en_bash</title>
<ellipse fill="none" stroke="black" cx="181.71" cy="-487" rx="80.01" ry="18"/>
<text text-anchor="middle" x="181.71" y="-481.95" font-family="Times,serif" font-size="14.00">Variables_en_bash</text>
</g>
<!-- Software_instalado&#45;&gt;Variables_en_bash -->
<g id="edge6" class="edge">
<title>Software_instalado&#45;&gt;Variables_en_bash</title>
<path fill="none" stroke="black" d="M181.71,-541.81C181.71,-534.05 181.71,-524.68 181.71,-515.95"/>
<polygon fill="black" stroke="black" points="185.21,-516.03 181.71,-506.03 178.21,-516.03 185.21,-516.03"/>
</g>
<!-- dbca -->
<g id="node7" class="node">
<title>dbca</title>
<ellipse fill="none" stroke="black" cx="89.71" cy="-414" rx="28.32" ry="18"/>
<text text-anchor="middle" x="89.71" y="-408.95" font-family="Times,serif" font-size="14.00">dbca</text>
</g>
<!-- Software_instalado&#45;&gt;dbca -->
<g id="edge7" class="edge">
<title>Software_instalado&#45;&gt;dbca</title>
<path fill="none" stroke="black" d="M140.01,-544.23C122.24,-535.66 103.21,-522.94 92.71,-505 81.86,-486.45 81.8,-461.87 84.07,-443.09"/>
<polygon fill="black" stroke="black" points="87.67,-443.65 85.71,-433.24 80.75,-442.61 87.67,-443.65"/>
</g>
<!-- netca -->
<g id="node8" class="node">
<title>netca</title>
<ellipse fill="none" stroke="black" cx="273.71" cy="-414" rx="30.37" ry="18"/>
<text text-anchor="middle" x="273.71" y="-408.95" font-family="Times,serif" font-size="14.00">netca</text>
</g>
<!-- Software_instalado&#45;&gt;netca -->
<g id="edge8" class="edge">
<title>Software_instalado&#45;&gt;netca</title>
<path fill="none" stroke="black" d="M223.42,-544.23C241.19,-535.66 260.22,-522.94 270.71,-505 281.57,-486.45 281.63,-461.87 279.36,-443.09"/>
<polygon fill="black" stroke="black" points="282.68,-442.61 277.72,-433.24 275.75,-443.65 282.68,-442.61"/>
</g>
<!-- Variables_en_bash&#45;&gt;dbca -->
<g id="edge9" class="edge">
<title>Variables_en_bash&#45;&gt;dbca</title>
<path fill="none" stroke="black" d="M160.38,-469.53C147.01,-459.22 129.71,-445.86 115.57,-434.95"/>
<polygon fill="black" stroke="black" points="118.29,-431.86 108.23,-428.52 114.01,-437.4 118.29,-431.86"/>
</g>
<!-- Variables_en_bash&#45;&gt;netca -->
<g id="edge10" class="edge">
<title>Variables_en_bash&#45;&gt;netca</title>
<path fill="none" stroke="black" d="M203.05,-469.53C216.33,-459.29 233.49,-446.04 247.58,-435.17"/>
<polygon fill="black" stroke="black" points="249.11,-437.63 254.89,-428.75 244.84,-432.09 249.11,-437.63"/>
</g>
<!-- Instancia_creada -->
<g id="node11" class="node">
<title>Instancia_creada</title>
<ellipse fill="none" stroke="black" cx="89.71" cy="-341" rx="72.85" ry="18"/>
<text text-anchor="middle" x="89.71" y="-335.95" font-family="Times,serif" font-size="14.00">Instancia_creada</text>
</g>
<!-- dbca&#45;&gt;Instancia_creada -->
<g id="edge13" class="edge">
<title>dbca&#45;&gt;Instancia_creada</title>
<path fill="none" stroke="black" d="M89.71,-395.81C89.71,-388.05 89.71,-378.68 89.71,-369.95"/>
<polygon fill="black" stroke="black" points="93.21,-370.03 89.71,-360.03 86.21,-370.03 93.21,-370.03"/>
</g>
<!-- Listener_creado -->
<g id="node9" class="node">
<title>Listener_creado</title>
<ellipse fill="none" stroke="black" cx="273.71" cy="-341" rx="70.29" ry="18"/>
<text text-anchor="middle" x="273.71" y="-335.95" font-family="Times,serif" font-size="14.00">Listener_creado</text>
</g>
<!-- netca&#45;&gt;Listener_creado -->
<g id="edge11" class="edge">
<title>netca&#45;&gt;Listener_creado</title>
<path fill="none" stroke="black" d="M273.71,-395.81C273.71,-388.05 273.71,-378.68 273.71,-369.95"/>
<polygon fill="black" stroke="black" points="277.21,-370.03 273.71,-360.03 270.21,-370.03 277.21,-370.03"/>
</g>
<!-- Listener_levantado -->
<g id="node10" class="node">
<title>Listener_levantado</title>
<ellipse fill="none" stroke="black" cx="273.71" cy="-252.5" rx="81.55" ry="18"/>
<text text-anchor="middle" x="273.71" y="-247.45" font-family="Times,serif" font-size="14.00">Listener_levantado</text>
</g>
<!-- Listener_creado&#45;&gt;Listener_levantado -->
<g id="edge12" class="edge">
<title>Listener_creado&#45;&gt;Listener_levantado</title>
<path fill="none" stroke="black" d="M273.71,-322.91C273.71,-311.14 273.71,-295.23 273.71,-281.61"/>
<polygon fill="black" stroke="black" points="277.21,-281.85 273.71,-271.85 270.21,-281.85 277.21,-281.85"/>
<text text-anchor="middle" x="304.09" y="-291.7" font-family="Times,serif" font-size="14.00">lsnrctl start</text>
</g>
<!-- Instancia_conectada -->
<g id="node13" class="node">
<title>Instancia_conectada</title>
<ellipse fill="none" stroke="black" cx="181.71" cy="-164" rx="85.64" ry="18"/>
<text text-anchor="middle" x="181.71" y="-158.95" font-family="Times,serif" font-size="14.00">Instancia_conectada</text>
</g>
<!-- Listener_levantado&#45;&gt;Instancia_conectada -->
<g id="edge16" class="edge">
<title>Listener_levantado&#45;&gt;Instancia_conectada</title>
<path fill="none" stroke="black" d="M255.97,-234.82C242.19,-221.86 222.88,-203.7 207.4,-189.16"/>
<polygon fill="black" stroke="black" points="210.39,-187.22 200.71,-182.92 205.6,-192.32 210.39,-187.22"/>
</g>
<!-- Instancia_levantada -->
<g id="node12" class="node">
<title>Instancia_levantada</title>
<ellipse fill="none" stroke="black" cx="89.71" cy="-252.5" rx="84.11" ry="18"/>
<text text-anchor="middle" x="89.71" y="-247.45" font-family="Times,serif" font-size="14.00">Instancia_levantada</text>
</g>
<!-- Instancia_creada&#45;&gt;Instancia_levantada -->
<g id="edge14" class="edge">
<title>Instancia_creada&#45;&gt;Instancia_levantada</title>
<path fill="none" stroke="black" d="M89.71,-322.91C89.71,-311.14 89.71,-295.23 89.71,-281.61"/>
<polygon fill="black" stroke="black" points="93.21,-281.85 89.71,-271.85 86.21,-281.85 93.21,-281.85"/>
<text text-anchor="middle" x="123.09" y="-291.7" font-family="Times,serif" font-size="14.00">startup open</text>
</g>
<!-- Instancia_levantada&#45;&gt;Instancia_conectada -->
<g id="edge15" class="edge">
<title>Instancia_levantada&#45;&gt;Instancia_conectada</title>
<path fill="none" stroke="black" d="M107.45,-234.82C121.24,-221.86 140.55,-203.7 156.02,-189.16"/>
<polygon fill="black" stroke="black" points="157.83,-192.32 162.72,-182.92 153.03,-187.22 157.83,-192.32"/>
<text text-anchor="middle" x="176.96" y="-203.2" font-family="Times,serif" font-size="14.00">Automático</text>
</g>
<!-- Conectar_cliente_remoto -->
<g id="node15" class="node">
<title>Conectar_cliente_remoto</title>
<ellipse fill="none" stroke="black" cx="381.71" cy="-91" rx="104.58" ry="18"/>
<text text-anchor="middle" x="381.71" y="-85.95" font-family="Times,serif" font-size="14.00">Conectar_cliente_remoto</text>
</g>
<!-- Instancia_conectada&#45;&gt;Conectar_cliente_remoto -->
<g id="edge19" class="edge">
<title>Instancia_conectada&#45;&gt;Conectar_cliente_remoto</title>
<path fill="none" stroke="black" d="M224.13,-147.94C254.24,-137.25 294.91,-122.81 327.39,-111.28"/>
<polygon fill="black" stroke="black" points="328.38,-114.29 336.63,-107.65 326.03,-107.7 328.38,-114.29"/>
</g>
<!-- Conseguido -->
<g id="node17" class="node">
<title>Conseguido</title>
<ellipse fill="none" stroke="black" cx="196.71" cy="-18" rx="54.93" ry="18"/>
<text text-anchor="middle" x="196.71" y="-12.95" font-family="Times,serif" font-size="14.00">Conseguido</text>
</g>
<!-- Instancia_conectada&#45;&gt;Conseguido -->
<g id="edge21" class="edge">
<title>Instancia_conectada&#45;&gt;Conseguido</title>
<path fill="none" stroke="black" d="M183.52,-145.63C186.07,-121.2 190.73,-76.4 193.78,-47.17"/>
<polygon fill="black" stroke="black" points="197.34,-47.74 194.9,-37.43 190.38,-47.01 197.34,-47.74"/>
<text text-anchor="middle" x="225.84" y="-85.95" font-family="Times,serif" font-size="14.00">lsnrctl status</text>
</g>
<!-- Instalar_cliente_remoto -->
<g id="node14" class="node">
<title>Instalar_cliente_remoto</title>
<ellipse fill="none" stroke="black" cx="384.71" cy="-164" rx="98.95" ry="18"/>
<text text-anchor="middle" x="384.71" y="-158.95" font-family="Times,serif" font-size="14.00">Instalar_cliente_remoto</text>
</g>
<!-- Instalar_cliente_remoto&#45;&gt;Conectar_cliente_remoto -->
<g id="edge17" class="edge">
<title>Instalar_cliente_remoto&#45;&gt;Conectar_cliente_remoto</title>
<path fill="none" stroke="black" d="M383.99,-145.81C383.66,-138.05 383.26,-128.68 382.89,-119.95"/>
<polygon fill="black" stroke="black" points="386.35,-119.87 382.43,-110.03 379.36,-120.17 386.35,-119.87"/>
</g>
<!-- Conectar_cliente_remoto&#45;&gt;Conseguido -->
<g id="edge20" class="edge">
<title>Conectar_cliente_remoto&#45;&gt;Conseguido</title>
<path fill="none" stroke="black" d="M340.2,-74.07C310.94,-62.84 271.79,-47.81 241.77,-36.29"/>
<polygon fill="black" stroke="black" points="243.16,-32.69 232.57,-32.38 240.65,-39.23 243.16,-32.69"/>
</g>
<!-- Quitar_firewall -->
<g id="node16" class="node">
<title>Quitar_firewall</title>
<ellipse fill="none" stroke="black" cx="569.71" cy="-164" rx="67.73" ry="18"/>
<text text-anchor="middle" x="569.71" y="-158.95" font-family="Times,serif" font-size="14.00">Quitar_firewall</text>
</g>
<!-- Quitar_firewall&#45;&gt;Conectar_cliente_remoto -->
<g id="edge18" class="edge">
<title>Quitar_firewall&#45;&gt;Conectar_cliente_remoto</title>
<path fill="none" stroke="black" d="M532.12,-148.8C504.01,-138.19 465.22,-123.54 434.07,-111.77"/>
<polygon fill="black" stroke="black" points="435.42,-108.16 424.83,-107.9 432.95,-114.71 435.42,-108.16"/>
</g>
</g>
</svg>
