<?xml version="1.0" encoding="UTF-8" standalone="no"?>
<!DOCTYPE svg PUBLIC "-//W3C//DTD SVG 1.1//EN"
 "http://www.w3.org/Graphics/SVG/1.1/DTD/svg11.dtd">
<!-- Generated by graphviz version 8.1.0 (20230707.0739)
 -->
<!-- Pages: 1 -->
<svg width="756pt" height="383pt"
 viewBox="0.00 0.00 756.10 382.50" xmlns="http://www.w3.org/2000/svg" xmlns:xlink="http://www.w3.org/1999/xlink">
<g id="graph0" class="graph" transform="scale(1 1) rotate(0) translate(4 378.5)">
<polygon fill="white" stroke="none" points="-4,4 -4,-378.5 752.1,-378.5 752.1,4 -4,4"/>
<!-- ~/.bash_profile -->
<g id="node1" class="node">
<title>~/.bash_profile</title>
<ellipse fill="none" stroke="black" cx="467" cy="-179.5" rx="95.37" ry="18"/>
<text text-anchor="middle" x="467" y="-174.45" font-family="courier new" font-size="14.00">~/.bash_profile</text>
</g>
<!-- ~/.bashrc -->
<g id="node6" class="node">
<title>~/.bashrc</title>
<ellipse fill="none" stroke="black" cx="374" cy="-91" rx="61.59" ry="18"/>
<text text-anchor="middle" x="374" y="-85.95" font-family="courier new" font-size="14.00">~/.bashrc</text>
</g>
<!-- ~/.bash_profile&#45;&gt;~/.bashrc -->
<g id="edge11" class="edge">
<title>~/.bash_profile&#45;&gt;~/.bashrc</title>
<path fill="none" stroke="black" stroke-dasharray="1,5" d="M448.62,-161.41C434.56,-148.33 415,-130.13 399.43,-115.65"/>
<polygon fill="black" stroke="black" points="402.41,-113.71 392.7,-109.47 397.64,-118.84 402.41,-113.71"/>
</g>
<!-- ~/.bash_login -->
<g id="node2" class="node">
<title>~/.bash_login</title>
<ellipse fill="none" stroke="black" cx="664" cy="-179.5" rx="84.11" ry="18"/>
<text text-anchor="middle" x="664" y="-174.45" font-family="courier new" font-size="14.00">~/.bash_login</text>
</g>
<!-- ~/.profile -->
<g id="node3" class="node">
<title>~/.profile</title>
<ellipse fill="none" stroke="black" cx="286" cy="-179.5" rx="67.22" ry="18"/>
<text text-anchor="middle" x="286" y="-174.45" font-family="courier new" font-size="14.00">~/.profile</text>
</g>
<!-- ~/.bash_logout -->
<g id="node4" class="node">
<title>~/.bash_logout</title>
<ellipse fill="none" stroke="black" cx="443" cy="-268" rx="89.74" ry="18"/>
<text text-anchor="middle" x="443" y="-262.95" font-family="courier new" font-size="14.00">~/.bash_logout</text>
</g>
<!-- /etc/bash.bashrc -->
<g id="node5" class="node">
<title>/etc/bash.bashrc</title>
<ellipse fill="none" stroke="black" cx="101" cy="-91" rx="101" ry="18"/>
<text text-anchor="middle" x="101" y="-85.95" font-family="courier new" font-size="14.00">/etc/bash.bashrc</text>
</g>
<!-- /etc/bashrc -->
<g id="node12" class="node">
<title>/etc/bashrc</title>
<ellipse fill="none" stroke="black" cx="374" cy="-18" rx="50.84" ry="18"/>
<text text-anchor="middle" x="374" y="-12.95" font-family="Times,serif" font-size="14.00">/etc/bashrc</text>
</g>
<!-- ~/.bashrc&#45;&gt;/etc/bashrc -->
<g id="edge12" class="edge">
<title>~/.bashrc&#45;&gt;/etc/bashrc</title>
<path fill="none" stroke="black" stroke-dasharray="1,5" d="M374,-72.81C374,-65.05 374,-55.68 374,-46.95"/>
<polygon fill="black" stroke="black" points="377.5,-47.03 374,-37.03 370.5,-47.03 377.5,-47.03"/>
</g>
<!-- /etc/profile -->
<g id="node7" class="node">
<title>/etc/profile</title>
<ellipse fill="none" stroke="black" cx="257" cy="-268" rx="78.48" ry="18"/>
<text text-anchor="middle" x="257" y="-262.95" font-family="courier new" font-size="14.00">/etc/profile</text>
</g>
<!-- BASH LOGIN -->
<g id="node8" class="node">
<title>BASH LOGIN</title>
<ellipse fill="none" stroke="black" cx="443" cy="-356.5" rx="66.71" ry="18"/>
<text text-anchor="middle" x="443" y="-351.45" font-family="Times,serif" font-size="14.00">BASH LOGIN</text>
</g>
<!-- BASH LOGIN&#45;&gt;~/.bash_logout -->
<g id="edge6" class="edge">
<title>BASH LOGIN&#45;&gt;~/.bash_logout</title>
<path fill="none" stroke="black" d="M443,-338.41C443,-326.64 443,-310.73 443,-297.11"/>
<polygon fill="black" stroke="black" points="446.5,-297.35 443,-287.35 439.5,-297.35 446.5,-297.35"/>
<text text-anchor="middle" x="453.12" y="-307.2" font-family="Times,serif" font-size="14.00">exit</text>
</g>
<!-- BASH LOGIN&#45;&gt;/etc/profile -->
<g id="edge1" class="edge">
<title>BASH LOGIN&#45;&gt;/etc/profile</title>
<path fill="none" stroke="black" d="M410.6,-340.43C380,-326.2 333.9,-304.76 300.19,-289.09"/>
<polygon fill="black" stroke="black" points="302.14,-285.67 291.59,-284.62 299.18,-292.01 302.14,-285.67"/>
<text text-anchor="middle" x="372.62" y="-307.2" font-family="Times,serif" font-size="14.00">1º</text>
</g>
<!-- Primero de: -->
<g id="node9" class="node">
<title>Primero de:</title>
<ellipse fill="none" stroke="black" cx="606" cy="-268" rx="54.93" ry="18"/>
<text text-anchor="middle" x="606" y="-262.95" font-family="Times,serif" font-size="14.00">Primero de:</text>
</g>
<!-- BASH LOGIN&#45;&gt;Primero de: -->
<g id="edge2" class="edge">
<title>BASH LOGIN&#45;&gt;Primero de:</title>
<path fill="none" stroke="black" d="M472.14,-340.04C499.04,-325.76 539.14,-304.48 568.44,-288.93"/>
<polygon fill="black" stroke="black" points="569.73,-291.68 576.93,-283.9 566.45,-285.49 569.73,-291.68"/>
<text text-anchor="middle" x="544.62" y="-307.2" font-family="Times,serif" font-size="14.00">2º</text>
</g>
<!-- Primero de:&#45;&gt;~/.bash_profile -->
<g id="edge3" class="edge">
<title>Primero de:&#45;&gt;~/.bash_profile</title>
<path fill="none" stroke="black" d="M581.15,-251.54C559.27,-237.92 527.15,-217.93 502.55,-202.62"/>
<polygon fill="black" stroke="black" points="504.86,-199.32 494.53,-197.01 501.17,-205.26 504.86,-199.32"/>
<text text-anchor="middle" x="553.62" y="-218.7" font-family="Times,serif" font-size="14.00">1º</text>
</g>
<!-- Primero de:&#45;&gt;~/.bash_login -->
<g id="edge4" class="edge">
<title>Primero de:&#45;&gt;~/.bash_login</title>
<path fill="none" stroke="black" d="M617.46,-249.91C625.8,-237.47 637.24,-220.41 646.69,-206.31"/>
<polygon fill="black" stroke="black" points="649.9,-208.81 652.56,-198.55 644.09,-204.91 649.9,-208.81"/>
<text text-anchor="middle" x="645.62" y="-218.7" font-family="Times,serif" font-size="14.00">2º</text>
</g>
<!-- Primero de:&#45;&gt;~/.profile -->
<g id="edge5" class="edge">
<title>Primero de:&#45;&gt;~/.profile</title>
<path fill="none" stroke="black" d="M564.49,-255.78C507.78,-240.45 405.89,-212.91 342.33,-195.73"/>
<polygon fill="black" stroke="black" points="343.66,-192.19 333.09,-192.96 341.83,-198.95 343.66,-192.19"/>
<text text-anchor="middle" x="480.62" y="-218.7" font-family="Times,serif" font-size="14.00">3º</text>
</g>
<!-- BASH INTERACTIVO -->
<g id="node10" class="node">
<title>BASH INTERACTIVO</title>
<ellipse fill="none" stroke="black" cx="101" cy="-179.5" rx="99.97" ry="18"/>
<text text-anchor="middle" x="101" y="-174.45" font-family="Times,serif" font-size="14.00">BASH INTERACTIVO</text>
</g>
<!-- BASH INTERACTIVO&#45;&gt;/etc/bash.bashrc -->
<g id="edge7" class="edge">
<title>BASH INTERACTIVO&#45;&gt;/etc/bash.bashrc</title>
<path fill="none" stroke="black" d="M101,-161.41C101,-149.64 101,-133.73 101,-120.11"/>
<polygon fill="black" stroke="black" points="104.5,-120.35 101,-110.35 97.5,-120.35 104.5,-120.35"/>
<text text-anchor="middle" x="106.62" y="-130.2" font-family="Times,serif" font-size="14.00">1º</text>
</g>
<!-- BASH INTERACTIVO&#45;&gt;~/.bashrc -->
<g id="edge8" class="edge">
<title>BASH INTERACTIVO&#45;&gt;~/.bashrc</title>
<path fill="none" stroke="black" d="M148.86,-163.33C197.69,-147.86 273.17,-123.95 323.07,-108.13"/>
<polygon fill="black" stroke="black" points="323.84,-111.25 332.32,-104.89 321.73,-104.57 323.84,-111.25"/>
<text text-anchor="middle" x="267.62" y="-130.2" font-family="Times,serif" font-size="14.00">2º</text>
</g>
<!-- SH INTERACTIVO -->
<g id="node11" class="node">
<title>SH INTERACTIVO</title>
<ellipse fill="none" stroke="black" cx="194" cy="-356.5" rx="87.18" ry="18"/>
<text text-anchor="middle" x="194" y="-351.45" font-family="Times,serif" font-size="14.00">SH INTERACTIVO</text>
</g>
<!-- SH INTERACTIVO&#45;&gt;~/.profile -->
<g id="edge10" class="edge">
<title>SH INTERACTIVO&#45;&gt;~/.profile</title>
<path fill="none" stroke="black" d="M179.91,-338.48C163.79,-316.81 141.7,-278.73 158.75,-250 174.12,-224.08 202.94,-207.21 229.27,-196.59"/>
<polygon fill="black" stroke="black" points="230.1,-199.64 238.21,-192.81 227.62,-193.09 230.1,-199.64"/>
<text text-anchor="middle" x="164.62" y="-262.95" font-family="Times,serif" font-size="14.00">2º</text>
</g>
<!-- SH INTERACTIVO&#45;&gt;/etc/profile -->
<g id="edge9" class="edge">
<title>SH INTERACTIVO&#45;&gt;/etc/profile</title>
<path fill="none" stroke="black" d="M206.44,-338.41C215.5,-325.97 227.93,-308.91 238.2,-294.81"/>
<polygon fill="black" stroke="black" points="241.52,-297.2 244.58,-287.05 235.86,-293.08 241.52,-297.2"/>
<text text-anchor="middle" x="237.62" y="-307.2" font-family="Times,serif" font-size="14.00">1º</text>
</g>
</g>
</svg>
