<?xml version="1.0" encoding="UTF-8" standalone="no"?>
<!DOCTYPE svg PUBLIC "-//W3C//DTD SVG 1.1//EN"
 "http://www.w3.org/Graphics/SVG/1.1/DTD/svg11.dtd">
<!-- Generated by graphviz version 2.43.0 (0)
 -->
<!-- Title: %3 Pages: 1 -->
<svg width="749pt" height="378pt"
 viewBox="0.00 0.00 749.48 378.00" xmlns="http://www.w3.org/2000/svg" xmlns:xlink="http://www.w3.org/1999/xlink">
<g id="graph0" class="graph" transform="scale(1 1) rotate(0) translate(4 374)">
<title>%3</title>
<polygon fill="white" stroke="transparent" points="-4,4 -4,-374 745.48,-374 745.48,4 -4,4"/>
<!-- ~/.bash_profile -->
<g id="node1" class="node">
<title>~/.bash_profile</title>
<ellipse fill="none" stroke="black" cx="470.89" cy="-178" rx="90.98" ry="18"/>
<text text-anchor="middle" x="470.89" y="-174.3" font-family="courier new" font-size="14.00">~/.bash_profile</text>
</g>
<!-- ~/.bashrc -->
<g id="node6" class="node">
<title>~/.bashrc</title>
<ellipse fill="none" stroke="black" cx="375.89" cy="-91" rx="59.29" ry="18"/>
<text text-anchor="middle" x="375.89" y="-87.3" font-family="courier new" font-size="14.00">~/.bashrc</text>
</g>
<!-- ~/.bash_profile&#45;&gt;~/.bashrc -->
<g id="edge11" class="edge">
<title>~/.bash_profile&#45;&gt;~/.bashrc</title>
<path fill="none" stroke="black" stroke-dasharray="1,5" d="M452.12,-160.21C437.62,-147.23 417.4,-129.14 401.43,-114.85"/>
<polygon fill="black" stroke="black" points="403.76,-112.24 393.98,-108.18 399.09,-117.46 403.76,-112.24"/>
</g>
<!-- ~/.bash_login -->
<g id="node2" class="node">
<title>~/.bash_login</title>
<ellipse fill="none" stroke="black" cx="660.89" cy="-178" rx="80.69" ry="18"/>
<text text-anchor="middle" x="660.89" y="-174.3" font-family="courier new" font-size="14.00">~/.bash_login</text>
</g>
<!-- ~/.profile -->
<g id="node3" class="node">
<title>~/.profile</title>
<ellipse fill="none" stroke="black" cx="297.89" cy="-178" rx="64.19" ry="18"/>
<text text-anchor="middle" x="297.89" y="-174.3" font-family="courier new" font-size="14.00">~/.profile</text>
</g>
<!-- ~/.bash_logout -->
<g id="node4" class="node">
<title>~/.bash_logout</title>
<ellipse fill="none" stroke="black" cx="434.89" cy="-265" rx="85.59" ry="18"/>
<text text-anchor="middle" x="434.89" y="-261.3" font-family="courier new" font-size="14.00">~/.bash_logout</text>
</g>
<!-- /etc/bash.bashrc -->
<g id="node5" class="node">
<title>/etc/bash.bashrc</title>
<ellipse fill="none" stroke="black" cx="107.89" cy="-91" rx="96.68" ry="18"/>
<text text-anchor="middle" x="107.89" y="-87.3" font-family="courier new" font-size="14.00">/etc/bash.bashrc</text>
</g>
<!-- /etc/bashrc -->
<g id="node12" class="node">
<title>/etc/bashrc</title>
<ellipse fill="none" stroke="black" cx="375.89" cy="-18" rx="61.99" ry="18"/>
<text text-anchor="middle" x="375.89" y="-14.3" font-family="Times,serif" font-size="14.00">/etc/bashrc</text>
</g>
<!-- ~/.bashrc&#45;&gt;/etc/bashrc -->
<g id="edge12" class="edge">
<title>~/.bashrc&#45;&gt;/etc/bashrc</title>
<path fill="none" stroke="black" stroke-dasharray="1,5" d="M375.89,-72.81C375.89,-64.79 375.89,-55.05 375.89,-46.07"/>
<polygon fill="black" stroke="black" points="379.39,-46.03 375.89,-36.03 372.39,-46.03 379.39,-46.03"/>
</g>
<!-- /etc/profile -->
<g id="node7" class="node">
<title>/etc/profile</title>
<ellipse fill="none" stroke="black" cx="255.89" cy="-265" rx="75.29" ry="18"/>
<text text-anchor="middle" x="255.89" y="-261.3" font-family="courier new" font-size="14.00">/etc/profile</text>
</g>
<!-- BASH LOGIN -->
<g id="node8" class="node">
<title>BASH LOGIN</title>
<ellipse fill="none" stroke="black" cx="434.89" cy="-352" rx="72.59" ry="18"/>
<text text-anchor="middle" x="434.89" y="-348.3" font-family="Times,serif" font-size="14.00">BASH LOGIN</text>
</g>
<!-- BASH LOGIN&#45;&gt;~/.bash_logout -->
<g id="edge6" class="edge">
<title>BASH LOGIN&#45;&gt;~/.bash_logout</title>
<path fill="none" stroke="black" d="M434.89,-333.8C434.89,-322.16 434.89,-306.55 434.89,-293.24"/>
<polygon fill="black" stroke="black" points="438.39,-293.18 434.89,-283.18 431.39,-293.18 438.39,-293.18"/>
<text text-anchor="middle" x="448.89" y="-304.8" font-family="Times,serif" font-size="14.00">exit</text>
</g>
<!-- BASH LOGIN&#45;&gt;/etc/profile -->
<g id="edge1" class="edge">
<title>BASH LOGIN&#45;&gt;/etc/profile</title>
<path fill="none" stroke="black" d="M402.89,-335.8C373.42,-321.81 329.52,-300.96 297.37,-285.7"/>
<polygon fill="black" stroke="black" points="298.75,-282.48 288.22,-281.35 295.75,-288.8 298.75,-282.48"/>
<text text-anchor="middle" x="364.89" y="-304.8" font-family="Times,serif" font-size="14.00">1º</text>
</g>
<!-- Primero de: -->
<g id="node9" class="node">
<title>Primero de:</title>
<ellipse fill="none" stroke="black" cx="603.89" cy="-265" rx="65.79" ry="18"/>
<text text-anchor="middle" x="603.89" y="-261.3" font-family="Times,serif" font-size="14.00">Primero de:</text>
</g>
<!-- BASH LOGIN&#45;&gt;Primero de: -->
<g id="edge2" class="edge">
<title>BASH LOGIN&#45;&gt;Primero de:</title>
<path fill="none" stroke="black" d="M465.5,-335.61C493.34,-321.6 534.58,-300.86 564.8,-285.66"/>
<polygon fill="black" stroke="black" points="566.44,-288.76 573.8,-281.14 563.29,-282.5 566.44,-288.76"/>
<text text-anchor="middle" x="536.89" y="-304.8" font-family="Times,serif" font-size="14.00">2º</text>
</g>
<!-- Primero de:&#45;&gt;~/.bash_profile -->
<g id="edge3" class="edge">
<title>Primero de:&#45;&gt;~/.bash_profile</title>
<path fill="none" stroke="black" d="M579.19,-248.21C558.27,-234.84 528.08,-215.55 504.88,-200.72"/>
<polygon fill="black" stroke="black" points="506.68,-197.72 496.37,-195.28 502.91,-203.62 506.68,-197.72"/>
<text text-anchor="middle" x="552.89" y="-217.8" font-family="Times,serif" font-size="14.00">1º</text>
</g>
<!-- Primero de:&#45;&gt;~/.bash_login -->
<g id="edge4" class="edge">
<title>Primero de:&#45;&gt;~/.bash_login</title>
<path fill="none" stroke="black" d="M615.15,-247.21C623.3,-235.06 634.45,-218.43 643.7,-204.63"/>
<polygon fill="black" stroke="black" points="646.79,-206.3 649.46,-196.05 640.98,-202.41 646.79,-206.3"/>
<text text-anchor="middle" x="642.89" y="-217.8" font-family="Times,serif" font-size="14.00">2º</text>
</g>
<!-- Primero de:&#45;&gt;~/.profile -->
<g id="edge5" class="edge">
<title>Primero de:&#45;&gt;~/.profile</title>
<path fill="none" stroke="black" d="M559.4,-251.64C504.4,-236.36 410.86,-210.38 351.83,-193.98"/>
<polygon fill="black" stroke="black" points="352.51,-190.54 341.94,-191.24 350.64,-197.29 352.51,-190.54"/>
<text text-anchor="middle" x="477.89" y="-217.8" font-family="Times,serif" font-size="14.00">3º</text>
</g>
<!-- BASH INTERACTIVO -->
<g id="node10" class="node">
<title>BASH INTERACTIVO</title>
<ellipse fill="none" stroke="black" cx="107.89" cy="-178" rx="107.78" ry="18"/>
<text text-anchor="middle" x="107.89" y="-174.3" font-family="Times,serif" font-size="14.00">BASH INTERACTIVO</text>
</g>
<!-- BASH INTERACTIVO&#45;&gt;/etc/bash.bashrc -->
<g id="edge7" class="edge">
<title>BASH INTERACTIVO&#45;&gt;/etc/bash.bashrc</title>
<path fill="none" stroke="black" d="M107.89,-159.8C107.89,-148.16 107.89,-132.55 107.89,-119.24"/>
<polygon fill="black" stroke="black" points="111.39,-119.18 107.89,-109.18 104.39,-119.18 111.39,-119.18"/>
<text text-anchor="middle" x="115.89" y="-130.8" font-family="Times,serif" font-size="14.00">1º</text>
</g>
<!-- BASH INTERACTIVO&#45;&gt;~/.bashrc -->
<g id="edge8" class="edge">
<title>BASH INTERACTIVO&#45;&gt;~/.bashrc</title>
<path fill="none" stroke="black" d="M155.8,-161.8C203.98,-146.53 277.89,-123.08 326.56,-107.65"/>
<polygon fill="black" stroke="black" points="327.77,-110.93 336.24,-104.57 325.65,-104.26 327.77,-110.93"/>
<text text-anchor="middle" x="266.89" y="-130.8" font-family="Times,serif" font-size="14.00">2º</text>
</g>
<!-- SH INTERACTIVO -->
<g id="node11" class="node">
<title>SH INTERACTIVO</title>
<ellipse fill="none" stroke="black" cx="192.89" cy="-352" rx="94.78" ry="18"/>
<text text-anchor="middle" x="192.89" y="-348.3" font-family="Times,serif" font-size="14.00">SH INTERACTIVO</text>
</g>
<!-- SH INTERACTIVO&#45;&gt;~/.profile -->
<g id="edge10" class="edge">
<title>SH INTERACTIVO&#45;&gt;~/.profile</title>
<path fill="none" stroke="black" d="M178.17,-334.14C161.33,-312.69 138.22,-275.05 155.89,-247 173.77,-218.62 207.14,-201.82 237.04,-192.02"/>
<polygon fill="black" stroke="black" points="238.07,-195.37 246.6,-189.08 236.01,-188.68 238.07,-195.37"/>
<text text-anchor="middle" x="163.89" y="-261.3" font-family="Times,serif" font-size="14.00">2º</text>
</g>
<!-- SH INTERACTIVO&#45;&gt;/etc/profile -->
<g id="edge9" class="edge">
<title>SH INTERACTIVO&#45;&gt;/etc/profile</title>
<path fill="none" stroke="black" d="M205.64,-333.8C214.75,-321.51 227.15,-304.77 237.36,-291.01"/>
<polygon fill="black" stroke="black" points="240.23,-293 243.38,-282.89 234.61,-288.84 240.23,-293"/>
<text text-anchor="middle" x="236.89" y="-304.8" font-family="Times,serif" font-size="14.00">1º</text>
</g>
</g>
</svg>
