<?xml version="1.0" encoding="UTF-8" standalone="no"?>
<!DOCTYPE svg PUBLIC "-//W3C//DTD SVG 1.1//EN"
 "http://www.w3.org/Graphics/SVG/1.1/DTD/svg11.dtd">
<!-- Generated by graphviz version 13.1.2 (20250808.2320)
 -->
<!-- Pages: 1 -->
<svg width="264pt" height="404pt"
 viewBox="0.00 0.00 264.00 404.00" xmlns="http://www.w3.org/2000/svg" xmlns:xlink="http://www.w3.org/1999/xlink">
<g id="graph0" class="graph" transform="scale(1 1) rotate(0) translate(4 400)">
<polygon fill="white" stroke="none" points="-4,4 -4,-400 260.08,-400 260.08,4 -4,4"/>
<!-- inicio -->
<g id="node1" class="node">
<title>inicio</title>
<ellipse fill="none" stroke="black" cx="145.61" cy="-378" rx="31.9" ry="18"/>
<text xml:space="preserve" text-anchor="middle" x="145.61" y="-372.95" font-family="Times,serif" font-size="14.00">inicio</text>
</g>
<!-- ++k &lt; high -->
<g id="node2" class="node">
<title>++k &lt; high</title>
<ellipse fill="none" stroke="black" cx="145.61" cy="-306" rx="53.91" ry="18"/>
<text xml:space="preserve" text-anchor="middle" x="145.61" y="-300.95" font-family="Times,serif" font-size="14.00">++k &lt; high</text>
</g>
<!-- inicio&#45;&gt;++k &lt; high -->
<g id="edge1" class="edge">
<title>inicio&#45;&gt;++k &lt; high</title>
<path fill="none" stroke="black" d="M145.61,-359.7C145.61,-352.41 145.61,-343.73 145.61,-335.54"/>
<polygon fill="black" stroke="black" points="149.11,-335.62 145.61,-325.62 142.11,-335.62 149.11,-335.62"/>
</g>
<!-- ai &lt; a[i &#45;1] -->
<g id="node3" class="node">
<title>ai &lt; a[i &#45;1]</title>
<ellipse fill="none" stroke="black" cx="97.61" cy="-234" rx="51.35" ry="18"/>
<text xml:space="preserve" text-anchor="middle" x="97.61" y="-228.95" font-family="Times,serif" font-size="14.00">ai &lt; a[i &#45;1]</text>
</g>
<!-- ++k &lt; high&#45;&gt;ai &lt; a[i &#45;1] -->
<g id="edge2" class="edge">
<title>++k &lt; high&#45;&gt;ai &lt; a[i &#45;1]</title>
<path fill="none" stroke="black" d="M128.68,-288.76C122.31,-280.78 115.31,-270.95 109.46,-261.89"/>
<polygon fill="black" stroke="black" points="112.47,-260.1 104.25,-253.41 106.51,-263.76 112.47,-260.1"/>
<text xml:space="preserve" text-anchor="middle" x="124.55" y="-275.46" font-family="Times,serif" font-size="14.00">T</text>
</g>
<!-- fin -->
<g id="node4" class="node">
<title>fin</title>
<ellipse fill="none" stroke="black" cx="193.61" cy="-234" rx="27" ry="18"/>
<text xml:space="preserve" text-anchor="middle" x="193.61" y="-228.95" font-family="Times,serif" font-size="14.00">fin</text>
</g>
<!-- ++k &lt; high&#45;&gt;fin -->
<g id="edge3" class="edge">
<title>++k &lt; high&#45;&gt;fin</title>
<path fill="none" stroke="black" d="M157.23,-288.05C162.94,-279.73 169.93,-269.54 176.25,-260.32"/>
<polygon fill="black" stroke="black" points="179.13,-262.3 181.9,-252.08 173.36,-258.35 179.13,-262.3"/>
<text xml:space="preserve" text-anchor="middle" x="153.48" y="-274.75" font-family="Times,serif" font-size="14.00">F</text>
</g>
<!-- ai &lt; a[i &#45;1]&#45;&gt;++k &lt; high -->
<g id="edge5" class="edge">
<title>ai &lt; a[i &#45;1]&#45;&gt;++k &lt; high</title>
<path fill="none" stroke="black" d="M114.47,-251.14C120.82,-259.09 127.8,-268.89 133.65,-277.94"/>
<polygon fill="black" stroke="black" points="130.64,-279.73 138.87,-286.41 136.6,-276.06 130.64,-279.73"/>
<text xml:space="preserve" text-anchor="middle" x="118.22" y="-254.34" font-family="Times,serif" font-size="14.00">F</text>
</g>
<!-- &#45;&#45;i &gt;= low -->
<g id="node5" class="node">
<title>&#45;&#45;i &gt;= low</title>
<ellipse fill="none" stroke="black" cx="119.61" cy="-162" rx="49.82" ry="18"/>
<text xml:space="preserve" text-anchor="middle" x="119.61" y="-156.95" font-family="Times,serif" font-size="14.00">&#45;&#45;i &gt;= low</text>
</g>
<!-- ai &lt; a[i &#45;1]&#45;&gt;&#45;&#45;i &gt;= low -->
<g id="edge4" class="edge">
<title>ai &lt; a[i &#45;1]&#45;&gt;&#45;&#45;i &gt;= low</title>
<path fill="none" stroke="black" d="M103.05,-215.7C105.39,-208.24 108.2,-199.32 110.82,-190.97"/>
<polygon fill="black" stroke="black" points="114.12,-192.14 113.78,-181.55 107.44,-190.04 114.12,-192.14"/>
<text xml:space="preserve" text-anchor="middle" x="98.92" y="-202.4" font-family="Times,serif" font-size="14.00">T</text>
</g>
<!-- ai &lt; a[i] -->
<g id="node6" class="node">
<title>ai &lt; a[i]</title>
<ellipse fill="none" stroke="black" cx="130.61" cy="-90" rx="41.12" ry="18"/>
<text xml:space="preserve" text-anchor="middle" x="130.61" y="-84.95" font-family="Times,serif" font-size="14.00">ai &lt; a[i]</text>
</g>
<!-- &#45;&#45;i &gt;= low&#45;&gt;ai &lt; a[i] -->
<g id="edge6" class="edge">
<title>&#45;&#45;i &gt;= low&#45;&gt;ai &lt; a[i]</title>
<path fill="none" stroke="black" d="M122.33,-143.7C123.49,-136.32 124.87,-127.52 126.17,-119.25"/>
<polygon fill="black" stroke="black" points="129.59,-120.02 127.69,-109.6 122.68,-118.93 129.59,-120.02"/>
<text xml:space="preserve" text-anchor="middle" x="118.21" y="-130.4" font-family="Times,serif" font-size="14.00">T</text>
</g>
<!-- a[i + 1] = ai -->
<g id="node7" class="node">
<title>a[i + 1] = ai</title>
<ellipse fill="none" stroke="black" cx="199.61" cy="-18" rx="56.47" ry="18"/>
<text xml:space="preserve" text-anchor="middle" x="199.61" y="-12.95" font-family="Times,serif" font-size="14.00">a[i + 1] = ai</text>
</g>
<!-- &#45;&#45;i &gt;= low&#45;&gt;a[i + 1] = ai -->
<g id="edge7" class="edge">
<title>&#45;&#45;i &gt;= low&#45;&gt;a[i + 1] = ai</title>
<path fill="none" stroke="black" d="M143.57,-145.88C156.48,-136.51 171.56,-123.35 180.61,-108 191.42,-89.67 196.12,-65.99 198.14,-47.66"/>
<polygon fill="black" stroke="black" points="201.62,-48 199,-37.74 194.65,-47.4 201.62,-48"/>
<text xml:space="preserve" text-anchor="middle" x="147.32" y="-132.58" font-family="Times,serif" font-size="14.00">F</text>
</g>
<!-- ai &lt; a[i]&#45;&gt;a[i + 1] = ai -->
<g id="edge9" class="edge">
<title>ai &lt; a[i]&#45;&gt;a[i + 1] = ai</title>
<path fill="none" stroke="black" d="M146.27,-73.12C154.97,-64.29 165.97,-53.13 175.72,-43.24"/>
<polygon fill="black" stroke="black" points="177.95,-45.96 182.47,-36.38 172.96,-41.05 177.95,-45.96"/>
<text xml:space="preserve" text-anchor="middle" x="150.02" y="-59.82" font-family="Times,serif" font-size="14.00">F</text>
</g>
<!-- a[i + 1] = a[i] -->
<g id="node8" class="node">
<title>a[i + 1] = a[i]</title>
<ellipse fill="none" stroke="black" cx="62.61" cy="-18" rx="62.61" ry="18"/>
<text xml:space="preserve" text-anchor="middle" x="62.61" y="-12.95" font-family="Times,serif" font-size="14.00">a[i + 1] = a[i]</text>
</g>
<!-- ai &lt; a[i]&#45;&gt;a[i + 1] = a[i] -->
<g id="edge8" class="edge">
<title>ai &lt; a[i]&#45;&gt;a[i + 1] = a[i]</title>
<path fill="none" stroke="black" d="M115.18,-73.12C106.82,-64.51 96.29,-53.67 86.85,-43.96"/>
<polygon fill="black" stroke="black" points="89.46,-41.62 79.98,-36.88 84.44,-46.49 89.46,-41.62"/>
<text xml:space="preserve" text-anchor="middle" x="119.31" y="-59.82" font-family="Times,serif" font-size="14.00">T</text>
</g>
<!-- a[i + 1] = ai&#45;&gt;++k &lt; high -->
<g id="edge11" class="edge">
<title>a[i + 1] = ai&#45;&gt;++k &lt; high</title>
<path fill="none" stroke="black" d="M208.36,-36.1C227.72,-76.49 269.4,-179.86 229.61,-252 221.22,-267.21 206.43,-278.66 191.56,-286.95"/>
<polygon fill="black" stroke="black" points="189.99,-283.82 182.69,-291.5 193.19,-290.05 189.99,-283.82"/>
</g>
<!-- a[i + 1] = a[i]&#45;&gt;&#45;&#45;i &gt;= low -->
<g id="edge10" class="edge">
<title>a[i + 1] = a[i]&#45;&gt;&#45;&#45;i &gt;= low</title>
<path fill="none" stroke="black" d="M63.89,-36.4C65.75,-54.85 70.2,-84.51 80.61,-108 84.91,-117.71 91.24,-127.36 97.55,-135.72"/>
<polygon fill="black" stroke="black" points="94.65,-137.69 103.61,-143.34 100.13,-133.34 94.65,-137.69"/>
</g>
</g>
</svg>
