<?xml version="1.0" encoding="UTF-8" standalone="no"?><svg xmlns="http://www.w3.org/2000/svg" xmlns:xlink="http://www.w3.org/1999/xlink" contentScriptType="application/ecmascript" contentStyleType="text/css" height="283px" preserveAspectRatio="none" style="width:223px;height:283px;" version="1.1" viewBox="0 0 223 283" width="223px" zoomAndPan="magnify"><defs><filter height="300%" id="fi4xuaw2at9co" width="300%" x="-1" y="-1"><feGaussianBlur result="blurOut" stdDeviation="2.0"/><feColorMatrix in="blurOut" result="blurOut2" type="matrix" values="0 0 0 0 0 0 0 0 0 0 0 0 0 0 0 0 0 0 .4 0"/><feOffset dx="4.0" dy="4.0" in="blurOut2" result="blurOut3"/><feBlend in="SourceGraphic" in2="blurOut3" mode="normal"/></filter></defs><g><!--class Alumnos--><rect fill="#FEFECE" filter="url(#fi4xuaw2at9co)" height="48" id="Alumnos" style="stroke: #A80036; stroke-width: 1.5;" width="80" x="6" y="8"/><ellipse cx="21" cy="24" fill="#ADD1B2" rx="11" ry="11" style="stroke: #A80036; stroke-width: 1.0;"/><path d="M18.6563,23.8438 Q18.6563,25.7188 19.2344,26.7344 Q19.8125,27.7344 20.9688,27.7344 Q22.3125,27.7344 22.9688,25.7188 L25.2344,26.1406 Q24.125,29.6719 20.9531,29.6719 Q18.6094,29.6719 17.3906,28.1875 Q16.1719,26.7031 16.1719,23.8438 Q16.1719,18.125 20.875,18.125 Q22.4219,18.125 23.4531,18.9375 Q24.5,19.75 25,21.3594 L22.7344,21.9063 Q22.5,21.0313 22.0156,20.5469 Q21.5313,20.0469 20.9063,20.0469 Q18.6563,20.0469 18.6563,23.8438 Z "/><text fill="#000000" font-family="sans-serif" font-size="12" lengthAdjust="spacingAndGlyphs" textLength="48" x="35" y="28.3564">Alumnos</text><line style="stroke: #A80036; stroke-width: 1.5;" x1="7" x2="85" y1="40" y2="40"/><line style="stroke: #A80036; stroke-width: 1.5;" x1="7" x2="85" y1="48" y2="48"/><!--class Cursos--><rect fill="#FEFECE" filter="url(#fi4xuaw2at9co)" height="48" id="Cursos" style="stroke: #A80036; stroke-width: 1.5;" width="71" x="70.5" y="116"/><ellipse cx="85.5" cy="132" fill="#ADD1B2" rx="11" ry="11" style="stroke: #A80036; stroke-width: 1.0;"/><path d="M83.1563,131.8438 Q83.1563,133.7188 83.7344,134.7344 Q84.3125,135.7344 85.4688,135.7344 Q86.8125,135.7344 87.4688,133.7188 L89.7344,134.1406 Q88.625,137.6719 85.4531,137.6719 Q83.1094,137.6719 81.8906,136.1875 Q80.6719,134.7031 80.6719,131.8438 Q80.6719,126.125 85.375,126.125 Q86.9219,126.125 87.9531,126.9375 Q89,127.75 89.5,129.3594 L87.2344,129.9063 Q87,129.0313 86.5156,128.5469 Q86.0313,128.0469 85.4063,128.0469 Q83.1563,128.0469 83.1563,131.8438 Z "/><text fill="#000000" font-family="sans-serif" font-size="12" lengthAdjust="spacingAndGlyphs" textLength="39" x="99.5" y="136.3564">Cursos</text><line style="stroke: #A80036; stroke-width: 1.5;" x1="71.5" x2="140.5" y1="148" y2="148"/><line style="stroke: #A80036; stroke-width: 1.5;" x1="71.5" x2="140.5" y1="156" y2="156"/><!--class Profesores--><rect fill="#FEFECE" filter="url(#fi4xuaw2at9co)" height="48" id="Profesores" style="stroke: #A80036; stroke-width: 1.5;" width="91" x="121.5" y="8"/><ellipse cx="136.5" cy="24" fill="#ADD1B2" rx="11" ry="11" style="stroke: #A80036; stroke-width: 1.0;"/><path d="M134.1563,23.8438 Q134.1563,25.7188 134.7344,26.7344 Q135.3125,27.7344 136.4688,27.7344 Q137.8125,27.7344 138.4688,25.7188 L140.7344,26.1406 Q139.625,29.6719 136.4531,29.6719 Q134.1094,29.6719 132.8906,28.1875 Q131.6719,26.7031 131.6719,23.8438 Q131.6719,18.125 136.375,18.125 Q137.9219,18.125 138.9531,18.9375 Q140,19.75 140.5,21.3594 L138.2344,21.9063 Q138,21.0313 137.5156,20.5469 Q137.0313,20.0469 136.4063,20.0469 Q134.1563,20.0469 134.1563,23.8438 Z "/><text fill="#000000" font-family="sans-serif" font-size="12" lengthAdjust="spacingAndGlyphs" textLength="59" x="150.5" y="28.3564">Profesores</text><line style="stroke: #A80036; stroke-width: 1.5;" x1="122.5" x2="211.5" y1="40" y2="40"/><line style="stroke: #A80036; stroke-width: 1.5;" x1="122.5" x2="211.5" y1="48" y2="48"/><!--class Materias--><rect fill="#FEFECE" filter="url(#fi4xuaw2at9co)" height="48" id="Materias" style="stroke: #A80036; stroke-width: 1.5;" width="79" x="66.5" y="224"/><ellipse cx="81.5" cy="240" fill="#ADD1B2" rx="11" ry="11" style="stroke: #A80036; stroke-width: 1.0;"/><path d="M79.1563,239.8438 Q79.1563,241.7188 79.7344,242.7344 Q80.3125,243.7344 81.4688,243.7344 Q82.8125,243.7344 83.4688,241.7188 L85.7344,242.1406 Q84.625,245.6719 81.4531,245.6719 Q79.1094,245.6719 77.8906,244.1875 Q76.6719,242.7031 76.6719,239.8438 Q76.6719,234.125 81.375,234.125 Q82.9219,234.125 83.9531,234.9375 Q85,235.75 85.5,237.3594 L83.2344,237.9063 Q83,237.0313 82.5156,236.5469 Q82.0313,236.0469 81.4063,236.0469 Q79.1563,236.0469 79.1563,239.8438 Z "/><text fill="#000000" font-family="sans-serif" font-size="12" lengthAdjust="spacingAndGlyphs" textLength="47" x="95.5" y="244.3564">Materias</text><line style="stroke: #A80036; stroke-width: 1.5;" x1="67.5" x2="144.5" y1="256" y2="256"/><line style="stroke: #A80036; stroke-width: 1.5;" x1="67.5" x2="144.5" y1="264" y2="264"/><!--link Alumnos to Cursos--><path d="M63.18,63.36 C71.2,77.52 80.73,94.35 88.75,108.53 " fill="none" id="Alumnos-Cursos" style="stroke: #A80036; stroke-width: 1.0;"/><line style="stroke: #A80036; stroke-width: 1.0;" x1="88.8555" x2="99.76" y1="108.72" y2="115.68"/><line style="stroke: #A80036; stroke-width: 1.0;" x1="88.8555" x2="85.84" y1="108.72" y2="115.68"/><line style="stroke: #A80036; stroke-width: 1.0;" x1="88.8555" x2="92.8" y1="108.72" y2="115.68"/><line style="stroke: #A80036; stroke-width: 1.0;" x1="62.9583" x2="52.0566" y1="62.9634" y2="56"/><line style="stroke: #A80036; stroke-width: 1.0;" x1="62.9583" x2="65.9834" y1="62.9634" y2="56"/><line style="stroke: #A80036; stroke-width: 1.0;" x1="62.9583" x2="59.02" y1="62.9634" y2="56"/><!--link Profesores to Cursos--><path d="M153.76,56 C144.95,71.31 133.27,91.61 123.67,108.3 " fill="none" id="Profesores-Cursos" style="stroke: #A80036; stroke-width: 1.0;"/><line style="stroke: #A80036; stroke-width: 1.0;" x1="123.4029" x2="126.358" y1="108.742" y2="115.68"/><line style="stroke: #A80036; stroke-width: 1.0;" x1="123.4029" x2="112.482" y1="108.742" y2="115.68"/><line style="stroke: #A80036; stroke-width: 1.0;" x1="123.4029" x2="119.42" y1="108.742" y2="115.68"/><!--link Cursos to Materias--><path d="M106,172.26 C106,188.72 106,208.57 106,223.68 " fill="none" id="Cursos-Materias" style="stroke: #A80036; stroke-width: 1.0;"/><line style="stroke: #A80036; stroke-width: 1.0;" x1="106" x2="98" y1="172" y2="164"/><line style="stroke: #A80036; stroke-width: 1.0;" x1="106" x2="114" y1="172" y2="164"/><line style="stroke: #A80036; stroke-width: 1.0;" x1="106" x2="106" y1="172" y2="164"/><!--
@startuml
Alumnos }- -{ Cursos
Profesores - -{ Cursos
Cursos }- - Materias

@enduml

PlantUML version 1.2018.11(Sat Sep 22 18:43:53 CEST 2018)
(GPL source distribution)
Java Runtime: OpenJDK Runtime Environment
JVM: OpenJDK 64-Bit Server VM
Java Version: 11.0.24+8-post-Ubuntu-1ubuntu322.04
Operating System: Linux
OS Version: 6.8.0-40-generic
Default Encoding: UTF-8
Language: en
Country: US
--></g></svg>