<?xml version="1.0" encoding="UTF-8" standalone="no"?><svg xmlns="http://www.w3.org/2000/svg" xmlns:xlink="http://www.w3.org/1999/xlink" contentScriptType="application/ecmascript" contentStyleType="text/css" height="545px" preserveAspectRatio="none" style="width:167px;height:545px;" version="1.1" viewBox="0 0 167 545" width="167px" zoomAndPan="magnify"><defs><filter height="300%" id="f1e51ikebb5m6x" width="300%" x="-1" y="-1"><feGaussianBlur result="blurOut" stdDeviation="2.0"/><feColorMatrix in="blurOut" result="blurOut2" type="matrix" values="0 0 0 0 0 0 0 0 0 0 0 0 0 0 0 0 0 0 .4 0"/><feOffset dx="4.0" dy="4.0" in="blurOut2" result="blurOut3"/><feBlend in="SourceGraphic" in2="blurOut3" mode="normal"/></filter></defs><g><ellipse cx="82.5" cy="20" fill="#000000" filter="url(#f1e51ikebb5m6x)" rx="10" ry="10" style="stroke: none; stroke-width: 1.0;"/><polygon fill="#FEFECE" filter="url(#f1e51ikebb5m6x)" points="64.5,50,100.5,50,112.5,62,100.5,74,64.5,74,52.5,62,64.5,50" style="stroke: #A80036; stroke-width: 1.5;"/><text fill="#000000" font-family="sans-serif" font-size="11" lengthAdjust="spacingAndGlyphs" textLength="36" x="64.5" y="65.9934">n1 &gt; n2</text><text fill="#000000" font-family="sans-serif" font-size="11" lengthAdjust="spacingAndGlyphs" textLength="18" x="34.5" y="59.6689">yes</text><text fill="#000000" font-family="sans-serif" font-size="11" lengthAdjust="spacingAndGlyphs" textLength="12" x="112.5" y="59.6689">no</text><rect fill="#FEFECE" filter="url(#f1e51ikebb5m6x)" height="33.7988" rx="12.5" ry="12.5" style="stroke: #A80036; stroke-width: 1.5;" width="59" x="13" y="84"/><text fill="#000000" font-family="sans-serif" font-size="12" lengthAdjust="spacingAndGlyphs" textLength="39" x="23" y="105.2559">a ← n1</text><rect fill="#FEFECE" filter="url(#f1e51ikebb5m6x)" height="33.7988" rx="12.5" ry="12.5" style="stroke: #A80036; stroke-width: 1.5;" width="59" x="13" y="137.7988"/><text fill="#000000" font-family="sans-serif" font-size="12" lengthAdjust="spacingAndGlyphs" textLength="39" x="23" y="159.0547">b ← n2</text><rect fill="#FEFECE" filter="url(#f1e51ikebb5m6x)" height="33.7988" rx="12.5" ry="12.5" style="stroke: #A80036; stroke-width: 1.5;" width="59" x="93" y="84"/><text fill="#000000" font-family="sans-serif" font-size="12" lengthAdjust="spacingAndGlyphs" textLength="39" x="103" y="105.2559">a ← n2</text><rect fill="#FEFECE" filter="url(#f1e51ikebb5m6x)" height="33.7988" rx="12.5" ry="12.5" style="stroke: #A80036; stroke-width: 1.5;" width="59" x="93" y="137.7988"/><text fill="#000000" font-family="sans-serif" font-size="12" lengthAdjust="spacingAndGlyphs" textLength="39" x="103" y="159.0547">b ← n1</text><polygon fill="#FEFECE" filter="url(#f1e51ikebb5m6x)" points="82.5,177.5977,94.5,189.5977,82.5,201.5977,70.5,189.5977,82.5,177.5977" style="stroke: #A80036; stroke-width: 1.5;"/><rect fill="#FEFECE" filter="url(#f1e51ikebb5m6x)" height="33.7988" rx="12.5" ry="12.5" style="stroke: #A80036; stroke-width: 1.5;" width="62" x="51.5" y="277.4155"/><text fill="#000000" font-family="sans-serif" font-size="12" lengthAdjust="spacingAndGlyphs" textLength="42" x="61.5" y="298.6714">res ← b</text><rect fill="#FEFECE" filter="url(#f1e51ikebb5m6x)" height="33.7988" rx="12.5" ry="12.5" style="stroke: #A80036; stroke-width: 1.5;" width="93" x="36" y="331.2144"/><text fill="#000000" font-family="sans-serif" font-size="12" lengthAdjust="spacingAndGlyphs" textLength="73" x="46" y="352.4702">b ← a MOD b</text><rect fill="#FEFECE" filter="url(#f1e51ikebb5m6x)" height="33.7988" rx="12.5" ry="12.5" style="stroke: #A80036; stroke-width: 1.5;" width="62" x="51.5" y="385.0132"/><text fill="#000000" font-family="sans-serif" font-size="12" lengthAdjust="spacingAndGlyphs" textLength="42" x="61.5" y="406.269">a ← res</text><polygon fill="#FEFECE" filter="url(#f1e51ikebb5m6x)" points="69,221.5977,96,221.5977,108,233.5977,96,245.5977,69,245.5977,57,233.5977,69,221.5977" style="stroke: #A80036; stroke-width: 1.5;"/><text fill="#000000" font-family="sans-serif" font-size="11" lengthAdjust="spacingAndGlyphs" textLength="19" x="86.5" y="255.9155">true</text><text fill="#000000" font-family="sans-serif" font-size="11" lengthAdjust="spacingAndGlyphs" textLength="27" x="69" y="237.5911">b != 0</text><text fill="#000000" font-family="sans-serif" font-size="11" lengthAdjust="spacingAndGlyphs" textLength="23" x="34" y="231.2666">false</text><rect fill="#FEFECE" filter="url(#f1e51ikebb5m6x)" height="33.7988" rx="12.5" ry="12.5" style="stroke: #A80036; stroke-width: 1.5;" width="62" x="51.5" y="460.812"/><text fill="#000000" font-family="sans-serif" font-size="12" lengthAdjust="spacingAndGlyphs" textLength="42" x="61.5" y="482.0679">return a</text><ellipse cx="82.5" cy="524.6108" fill="none" filter="url(#f1e51ikebb5m6x)" rx="10" ry="10" style="stroke: #000000; stroke-width: 1.0;"/><ellipse cx="83" cy="525.1108" fill="#000000" filter="url(#f1e51ikebb5m6x)" rx="6" ry="6" style="stroke: none; stroke-width: 1.0;"/><line style="stroke: #A80036; stroke-width: 1.5;" x1="42.5" x2="42.5" y1="117.7988" y2="137.7988"/><polygon fill="#A80036" points="38.5,127.7988,42.5,137.7988,46.5,127.7988,42.5,131.7988" style="stroke: #A80036; stroke-width: 1.0;"/><line style="stroke: #A80036; stroke-width: 1.5;" x1="122.5" x2="122.5" y1="117.7988" y2="137.7988"/><polygon fill="#A80036" points="118.5,127.7988,122.5,137.7988,126.5,127.7988,122.5,131.7988" style="stroke: #A80036; stroke-width: 1.0;"/><line style="stroke: #A80036; stroke-width: 1.5;" x1="52.5" x2="42.5" y1="62" y2="62"/><line style="stroke: #A80036; stroke-width: 1.5;" x1="42.5" x2="42.5" y1="62" y2="84"/><polygon fill="#A80036" points="38.5,74,42.5,84,46.5,74,42.5,78" style="stroke: #A80036; stroke-width: 1.0;"/><line style="stroke: #A80036; stroke-width: 1.5;" x1="112.5" x2="122.5" y1="62" y2="62"/><line style="stroke: #A80036; stroke-width: 1.5;" x1="122.5" x2="122.5" y1="62" y2="84"/><polygon fill="#A80036" points="118.5,74,122.5,84,126.5,74,122.5,78" style="stroke: #A80036; stroke-width: 1.0;"/><line style="stroke: #A80036; stroke-width: 1.5;" x1="42.5" x2="42.5" y1="171.5977" y2="189.5977"/><line style="stroke: #A80036; stroke-width: 1.5;" x1="42.5" x2="70.5" y1="189.5977" y2="189.5977"/><polygon fill="#A80036" points="60.5,185.5977,70.5,189.5977,60.5,193.5977,64.5,189.5977" style="stroke: #A80036; stroke-width: 1.0;"/><line style="stroke: #A80036; stroke-width: 1.5;" x1="122.5" x2="122.5" y1="171.5977" y2="189.5977"/><line style="stroke: #A80036; stroke-width: 1.5;" x1="122.5" x2="94.5" y1="189.5977" y2="189.5977"/><polygon fill="#A80036" points="104.5,185.5977,94.5,189.5977,104.5,193.5977,100.5,189.5977" style="stroke: #A80036; stroke-width: 1.0;"/><line style="stroke: #A80036; stroke-width: 1.5;" x1="82.5" x2="82.5" y1="30" y2="50"/><polygon fill="#A80036" points="78.5,40,82.5,50,86.5,40,82.5,44" style="stroke: #A80036; stroke-width: 1.0;"/><line style="stroke: #A80036; stroke-width: 1.5;" x1="82.5" x2="82.5" y1="311.2144" y2="331.2144"/><polygon fill="#A80036" points="78.5,321.2144,82.5,331.2144,86.5,321.2144,82.5,325.2144" style="stroke: #A80036; stroke-width: 1.0;"/><line style="stroke: #A80036; stroke-width: 1.5;" x1="82.5" x2="82.5" y1="365.0132" y2="385.0132"/><polygon fill="#A80036" points="78.5,375.0132,82.5,385.0132,86.5,375.0132,82.5,379.0132" style="stroke: #A80036; stroke-width: 1.0;"/><line style="stroke: #A80036; stroke-width: 1.5;" x1="82.5" x2="82.5" y1="245.5977" y2="277.4155"/><polygon fill="#A80036" points="78.5,267.4155,82.5,277.4155,86.5,267.4155,82.5,271.4155" style="stroke: #A80036; stroke-width: 1.0;"/><line style="stroke: #A80036; stroke-width: 1.5;" x1="82.5" x2="82.5" y1="418.812" y2="428.812"/><line style="stroke: #A80036; stroke-width: 1.5;" x1="82.5" x2="141" y1="428.812" y2="428.812"/><polygon fill="#A80036" points="137,339.7893,141,329.7893,145,339.7893,141,335.7893" style="stroke: #A80036; stroke-width: 1.5;"/><line style="stroke: #A80036; stroke-width: 1.5;" x1="141" x2="141" y1="233.5977" y2="428.812"/><line style="stroke: #A80036; stroke-width: 1.5;" x1="141" x2="108" y1="233.5977" y2="233.5977"/><polygon fill="#A80036" points="118,229.5977,108,233.5977,118,237.5977,114,233.5977" style="stroke: #A80036; stroke-width: 1.0;"/><line style="stroke: #A80036; stroke-width: 1.5;" x1="57" x2="24" y1="233.5977" y2="233.5977"/><polygon fill="#A80036" points="20,325.7893,24,335.7893,28,325.7893,24,329.7893" style="stroke: #A80036; stroke-width: 1.5;"/><line style="stroke: #A80036; stroke-width: 1.5;" x1="24" x2="24" y1="233.5977" y2="440.812"/><line style="stroke: #A80036; stroke-width: 1.5;" x1="24" x2="82.5" y1="440.812" y2="440.812"/><line style="stroke: #A80036; stroke-width: 1.5;" x1="82.5" x2="82.5" y1="440.812" y2="460.812"/><polygon fill="#A80036" points="78.5,450.812,82.5,460.812,86.5,450.812,82.5,454.812" style="stroke: #A80036; stroke-width: 1.0;"/><line style="stroke: #A80036; stroke-width: 1.5;" x1="82.5" x2="82.5" y1="201.5977" y2="221.5977"/><polygon fill="#A80036" points="78.5,211.5977,82.5,221.5977,86.5,211.5977,82.5,215.5977" style="stroke: #A80036; stroke-width: 1.0;"/><line style="stroke: #A80036; stroke-width: 1.5;" x1="82.5" x2="82.5" y1="494.6108" y2="514.6108"/><polygon fill="#A80036" points="78.5,504.6108,82.5,514.6108,86.5,504.6108,82.5,508.6108" style="stroke: #A80036; stroke-width: 1.0;"/><!--
@startuml
start

if (n1 > n2) then (yes)
  :a ← n1;
  :b ← n2;
else (no)
  :a ← n2;
  :b ← n1;
endif

while (b != 0) is (true)
  :res ← b;
  :b ← a MOD b;
  :a ← res;
endwhile (false)

:return a;
stop
@enduml

PlantUML version 1.2018.11(Sat Sep 22 18:43:53 CEST 2018)
(GPL source distribution)
Java Runtime: OpenJDK Runtime Environment
JVM: OpenJDK 64-Bit Server VM
Java Version: 11.0.19+7-post-Ubuntu-0ubuntu122.04.1
Operating System: Linux
OS Version: 5.19.0-46-generic
Default Encoding: UTF-8
Language: en
Country: US
--></g></svg>