<?plantuml 1.2026.2?><svg xmlns="http://www.w3.org/2000/svg" xmlns:xlink="http://www.w3.org/1999/xlink" contentStyleType="text/css" data-diagram-type="CLASS" height="703px" preserveAspectRatio="none" style="width:428px;height:703px;background:#FFFFFF;" version="1.1" viewBox="0 0 428 703" width="428px" zoomAndPan="magnify"><defs/><g><!--class Documento--><g class="entity" data-qualified-name="Documento" data-source-line="2" id="ent0002"><rect fill="#F1F1F1" height="67.0679" rx="2.5" ry="2.5" style="stroke:#181818;stroke-width:0.5;" width="177.0175" x="211.81" y="229.41"/><ellipse cx="257.4569" cy="245.41" fill="#ADD1B2" rx="11" ry="11" style="stroke:#181818;stroke-width:1;"/><path d="M256.9256,252.3319 Q255.1756,252.3319 254.035,251.5975 Q252.91,250.8475 252.3475,249.5038 Q251.8006,248.1444 251.8006,246.3475 Q251.8006,244.3163 252.4569,242.8631 Q253.1131,241.41 254.3944,240.6288 Q255.6756,239.8475 257.5506,239.8475 Q258.4413,239.8475 259.1131,240.035 Q259.785,240.2069 260.4725,240.5506 L259.66,242.5663 Q259.035,242.2538 258.4881,242.1288 Q257.9569,242.0038 257.4725,242.0038 Q256.3006,242.0038 255.5975,242.535 Q254.8944,243.0663 254.5975,244.0194 Q254.3006,244.9725 254.3006,246.2381 Q254.3006,248.2538 255.0194,249.2225 Q255.7381,250.1756 257.3319,250.1756 Q257.9256,250.1756 258.5506,250.0194 Q259.1756,249.8631 260.0038,249.4881 L260.0038,251.7069 Q259.2694,252.0194 258.4725,252.1756 Q257.6913,252.3319 256.9256,252.3319 Z " fill="#000000"/><text fill="#000000" font-family="sans-serif" font-size="14" lengthAdjust="spacing" textLength="77.2237" x="277.9569" y="250.842">Documento</text><line style="stroke:#181818;stroke-width:0.5;" x1="212.81" x2="387.8275" y1="261.41" y2="261.41"/><g data-visibility-modifier="PRIVATE_FIELD"><rect fill="none" height="6" style="stroke:#C82930;stroke-width:1;" width="6" x="219.81" y="273.444"/></g><text fill="#000000" font-family="sans-serif" font-size="14" lengthAdjust="spacing" textLength="151.0175" x="231.81" y="280.3759">parrafos: List&lt;Parrafo&gt;</text><line style="stroke:#181818;stroke-width:0.5;" x1="212.81" x2="387.8275" y1="288.4779" y2="288.4779"/></g><!--class Parrafo--><g class="entity" data-qualified-name="Parrafo" data-source-line="5" id="ent0003"><rect fill="#F1F1F1" height="67.0679" rx="2.5" ry="2.5" style="stroke:#181818;stroke-width:0.5;" width="168.3514" x="148.15" y="375.55"/><ellipse cx="204.4158" cy="391.55" fill="#A9DCDF" rx="11" ry="11" style="stroke:#181818;stroke-width:1;"/><path d="M199.5877,397.3 L202.9314,385.1125 L206.0721,385.1125 L209.4471,397.3 L206.9783,397.3 L206.2439,394.2844 L202.7283,394.2844 L201.9783,397.3 L199.5877,397.3 Z M203.9939,389.2531 L203.2439,392.2531 L205.7596,392.2531 L205.0408,389.2531 Q204.9002,388.675 204.7752,388.1281 Q204.6502,387.5656 204.5096,386.9875 Q204.4002,387.5656 204.2596,388.1281 Q204.1189,388.675 203.9939,389.2531 Z " fill="#000000"/><text fill="#000000" font-family="sans-serif" font-size="14" font-style="italic" lengthAdjust="spacing" textLength="47.3198" x="224.9158" y="396.982">Parrafo</text><line style="stroke:#181818;stroke-width:0.5;" x1="149.15" x2="315.5014" y1="407.55" y2="407.55"/><g data-visibility-modifier="PRIVATE_FIELD"><rect fill="none" height="6" style="stroke:#C82930;stroke-width:1;" width="6" x="156.15" y="419.584"/></g><text fill="#000000" font-family="sans-serif" font-size="14" lengthAdjust="spacing" textLength="142.3514" x="168.15" y="426.5159">alineacion: Alineacion</text><line style="stroke:#181818;stroke-width:0.5;" x1="149.15" x2="315.5014" y1="434.6179" y2="434.6179"/></g><!--class ParrafoTexto--><g class="entity" data-qualified-name="ParrafoTexto" data-source-line="9" id="ent0004"><rect fill="#F1F1F1" height="67.0679" rx="2.5" ry="2.5" style="stroke:#181818;stroke-width:0.5;" width="176.1214" x="76.26" y="502.61"/><ellipse cx="117.5777" cy="518.61" fill="#ADD1B2" rx="11" ry="11" style="stroke:#181818;stroke-width:1;"/><path d="M117.0464,525.5319 Q115.2964,525.5319 114.1558,524.7975 Q113.0308,524.0475 112.4683,522.7038 Q111.9214,521.3444 111.9214,519.5475 Q111.9214,517.5163 112.5777,516.0631 Q113.2339,514.61 114.5152,513.8288 Q115.7964,513.0475 117.6714,513.0475 Q118.562,513.0475 119.2339,513.235 Q119.9058,513.4069 120.5933,513.7506 L119.7808,515.7663 Q119.1558,515.4538 118.6089,515.3288 Q118.0777,515.2038 117.5933,515.2038 Q116.4214,515.2038 115.7183,515.735 Q115.0152,516.2663 114.7183,517.2194 Q114.4214,518.1725 114.4214,519.4381 Q114.4214,521.4538 115.1402,522.4225 Q115.8589,523.3756 117.4527,523.3756 Q118.0464,523.3756 118.6714,523.2194 Q119.2964,523.0631 120.1245,522.6881 L120.1245,524.9069 Q119.3902,525.2194 118.5933,525.3756 Q117.812,525.5319 117.0464,525.5319 Z " fill="#000000"/><text fill="#000000" font-family="sans-serif" font-size="14" lengthAdjust="spacing" textLength="85.6377" x="137.426" y="524.042">ParrafoTexto</text><line style="stroke:#181818;stroke-width:0.5;" x1="77.26" x2="251.3814" y1="534.61" y2="534.61"/><g data-visibility-modifier="PRIVATE_FIELD"><rect fill="none" height="6" style="stroke:#C82930;stroke-width:1;" width="6" x="84.26" y="546.644"/></g><text fill="#000000" font-family="sans-serif" font-size="14" lengthAdjust="spacing" textLength="150.1214" x="96.26" y="553.5759">cadenas: List&lt;Cadena&gt;</text><line style="stroke:#181818;stroke-width:0.5;" x1="77.26" x2="251.3814" y1="561.6779" y2="561.6779"/></g><!--class ParrafoImagen--><g class="entity" data-qualified-name="ParrafoImagen" data-source-line="13" id="ent0005"><rect fill="#F1F1F1" height="67.0679" rx="2.5" ry="2.5" style="stroke:#181818;stroke-width:0.5;" width="133.9536" x="287.35" y="502.61"/><ellipse cx="303.2851" cy="518.61" fill="#ADD1B2" rx="11" ry="11" style="stroke:#181818;stroke-width:1;"/><path d="M302.7538,525.5319 Q301.0038,525.5319 299.8632,524.7975 Q298.7382,524.0475 298.1757,522.7038 Q297.6288,521.3444 297.6288,519.5475 Q297.6288,517.5163 298.2851,516.0631 Q298.9413,514.61 300.2226,513.8288 Q301.5038,513.0475 303.3788,513.0475 Q304.2694,513.0475 304.9413,513.235 Q305.6132,513.4069 306.3007,513.7506 L305.4882,515.7663 Q304.8632,515.4538 304.3163,515.3288 Q303.7851,515.2038 303.3007,515.2038 Q302.1288,515.2038 301.4257,515.735 Q300.7226,516.2663 300.4257,517.2194 Q300.1288,518.1725 300.1288,519.4381 Q300.1288,521.4538 300.8476,522.4225 Q301.5663,523.3756 303.1601,523.3756 Q303.7538,523.3756 304.3788,523.2194 Q305.0038,523.0631 305.8319,522.6881 L305.8319,524.9069 Q305.0976,525.2194 304.3007,525.3756 Q303.5194,525.5319 302.7538,525.5319 Z " fill="#000000"/><text fill="#000000" font-family="sans-serif" font-size="14" lengthAdjust="spacing" textLength="99.8756" x="317.4929" y="524.042">ParrafoImagen</text><line style="stroke:#181818;stroke-width:0.5;" x1="288.35" x2="420.3036" y1="534.61" y2="534.61"/><g data-visibility-modifier="PRIVATE_FIELD"><rect fill="none" height="6" style="stroke:#C82930;stroke-width:1;" width="6" x="295.35" y="546.644"/></g><text fill="#000000" font-family="sans-serif" font-size="14" lengthAdjust="spacing" textLength="107.9536" x="307.35" y="553.5759">imagen: Imagen</text><line style="stroke:#181818;stroke-width:0.5;" x1="288.35" x2="420.3036" y1="561.6779" y2="561.6779"/></g><!--class Cadena--><g class="entity" data-qualified-name="Cadena" data-source-line="17" id="ent0006"><rect fill="#F1F1F1" height="67.0679" rx="2.5" ry="2.5" style="stroke:#181818;stroke-width:0.5;" width="138.9236" x="24.86" y="629.68"/><ellipse cx="65.6044" cy="645.68" fill="#ADD1B2" rx="11" ry="11" style="stroke:#181818;stroke-width:1;"/><path d="M65.0731,652.6019 Q63.3231,652.6019 62.1825,651.8675 Q61.0575,651.1175 60.495,649.7738 Q59.9481,648.4144 59.9481,646.6175 Q59.9481,644.5863 60.6044,643.1331 Q61.2606,641.68 62.5419,640.8988 Q63.8231,640.1175 65.6981,640.1175 Q66.5888,640.1175 67.2606,640.305 Q67.9325,640.4769 68.62,640.8206 L67.8075,642.8363 Q67.1825,642.5238 66.6356,642.3988 Q66.1044,642.2738 65.62,642.2738 Q64.4481,642.2738 63.745,642.805 Q63.0419,643.3363 62.745,644.2894 Q62.4481,645.2425 62.4481,646.5081 Q62.4481,648.5238 63.1669,649.4925 Q63.8856,650.4456 65.4794,650.4456 Q66.0731,650.4456 66.6981,650.2894 Q67.3231,650.1331 68.1513,649.7581 L68.1513,651.9769 Q67.4169,652.2894 66.62,652.4456 Q65.8388,652.6019 65.0731,652.6019 Z " fill="#000000"/><text fill="#000000" font-family="sans-serif" font-size="14" lengthAdjust="spacing" textLength="49.7138" x="85.3254" y="651.112">Cadena</text><line style="stroke:#181818;stroke-width:0.5;" x1="25.86" x2="162.7836" y1="661.68" y2="661.68"/><g data-visibility-modifier="PRIVATE_FIELD"><rect fill="none" height="6" style="stroke:#C82930;stroke-width:1;" width="6" x="32.86" y="673.714"/></g><text fill="#000000" font-family="sans-serif" font-size="14" lengthAdjust="spacing" textLength="112.9236" x="44.86" y="680.6459">contenido: String</text><line style="stroke:#181818;stroke-width:0.5;" x1="25.86" x2="162.7836" y1="688.7479" y2="688.7479"/></g><!--class Formato--><g class="entity" data-qualified-name="Formato" data-source-line="21" id="ent0007"><rect fill="#F1F1F1" height="143.3396" rx="2.5" ry="2.5" style="stroke:#181818;stroke-width:0.5;" width="156.6335" x="83.01" y="7"/><ellipse cx="129.0839" cy="23" fill="#ADD1B2" rx="11" ry="11" style="stroke:#181818;stroke-width:1;"/><path d="M128.5526,29.9219 Q126.8026,29.9219 125.662,29.1875 Q124.537,28.4375 123.9745,27.0938 Q123.4276,25.7344 123.4276,23.9375 Q123.4276,21.9063 124.0839,20.4531 Q124.7401,19 126.0214,18.2188 Q127.3026,17.4375 129.1776,17.4375 Q130.0682,17.4375 130.7401,17.625 Q131.412,17.7969 132.0995,18.1406 L131.287,20.1563 Q130.662,19.8438 130.1151,19.7188 Q129.5839,19.5938 129.0995,19.5938 Q127.9276,19.5938 127.2245,20.125 Q126.5214,20.6563 126.2245,21.6094 Q125.9276,22.5625 125.9276,23.8281 Q125.9276,25.8438 126.6464,26.8125 Q127.3651,27.7656 128.9589,27.7656 Q129.5526,27.7656 130.1776,27.6094 Q130.8026,27.4531 131.6307,27.0781 L131.6307,29.2969 Q130.8964,29.6094 130.0995,29.7656 Q129.3182,29.9219 128.5526,29.9219 Z " fill="#000000"/><text fill="#000000" font-family="sans-serif" font-size="14" lengthAdjust="spacing" textLength="55.9858" x="149.5839" y="28.432">Formato</text><line style="stroke:#181818;stroke-width:0.5;" x1="84.01" x2="238.6435" y1="39" y2="39"/><g data-visibility-modifier="PRIVATE_FIELD"><rect fill="none" height="6" style="stroke:#C82930;stroke-width:1;" width="6" x="91.01" y="51.034"/></g><text fill="#000000" font-family="sans-serif" font-size="14" lengthAdjust="spacing" textLength="108.4156" x="103.01" y="57.9659">negrita: boolean</text><g data-visibility-modifier="PRIVATE_FIELD"><rect fill="none" height="6" style="stroke:#C82930;stroke-width:1;" width="6" x="91.01" y="70.1019"/></g><text fill="#000000" font-family="sans-serif" font-size="14" lengthAdjust="spacing" textLength="107.3936" x="103.01" y="77.0339">cursiva: boolean</text><g data-visibility-modifier="PRIVATE_FIELD"><rect fill="none" height="6" style="stroke:#C82930;stroke-width:1;" width="6" x="91.01" y="89.1698"/></g><text fill="#000000" font-family="sans-serif" font-size="14" lengthAdjust="spacing" textLength="130.6335" x="103.01" y="96.1018">subrayado: boolean</text><g data-visibility-modifier="PRIVATE_FIELD"><rect fill="none" height="6" style="stroke:#C82930;stroke-width:1;" width="6" x="91.01" y="108.2377"/></g><text fill="#000000" font-family="sans-serif" font-size="14" lengthAdjust="spacing" textLength="89.7536" x="103.01" y="115.1697">fuente: String</text><g data-visibility-modifier="PRIVATE_FIELD"><rect fill="none" height="6" style="stroke:#C82930;stroke-width:1;" width="6" x="91.01" y="127.3056"/></g><text fill="#000000" font-family="sans-serif" font-size="14" lengthAdjust="spacing" textLength="75.6837" x="103.01" y="134.2376">tamano: int</text><line style="stroke:#181818;stroke-width:0.5;" x1="84.01" x2="238.6435" y1="142.3396" y2="142.3396"/></g><!--class Imagen--><g class="entity" data-qualified-name="Imagen" data-source-line="29" id="ent0008"><rect fill="#F1F1F1" height="48" rx="2.5" ry="2.5" style="stroke:#181818;stroke-width:0.5;" width="82.8478" x="312.9" y="639.22"/><ellipse cx="327.9" cy="655.22" fill="#ADD1B2" rx="11" ry="11" style="stroke:#181818;stroke-width:1;"/><path d="M327.3688,662.1419 Q325.6188,662.1419 324.4781,661.4075 Q323.3531,660.6575 322.7906,659.3138 Q322.2438,657.9544 322.2438,656.1575 Q322.2438,654.1263 322.9,652.6731 Q323.5563,651.22 324.8375,650.4388 Q326.1188,649.6575 327.9938,649.6575 Q328.8844,649.6575 329.5563,649.845 Q330.2281,650.0169 330.9156,650.3606 L330.1031,652.3763 Q329.4781,652.0638 328.9313,651.9388 Q328.4,651.8138 327.9156,651.8138 Q326.7438,651.8138 326.0406,652.345 Q325.3375,652.8763 325.0406,653.8294 Q324.7438,654.7825 324.7438,656.0481 Q324.7438,658.0638 325.4625,659.0325 Q326.1813,659.9856 327.775,659.9856 Q328.3688,659.9856 328.9938,659.8294 Q329.6188,659.6731 330.4469,659.2981 L330.4469,661.5169 Q329.7125,661.8294 328.9156,661.9856 Q328.1344,662.1419 327.3688,662.1419 Z " fill="#000000"/><text fill="#000000" font-family="sans-serif" font-size="14" lengthAdjust="spacing" textLength="50.8478" x="341.9" y="660.652">Imagen</text><line style="stroke:#181818;stroke-width:0.5;" x1="313.9" x2="394.7478" y1="671.22" y2="671.22"/><line style="stroke:#181818;stroke-width:0.5;" x1="313.9" x2="394.7478" y1="679.22" y2="679.22"/></g><!--class Alineacion--><g class="entity" data-qualified-name="Alineacion" data-source-line="32" id="ent0009"><rect fill="#F1F1F1" height="105.2038" rx="2.5" ry="2.5" style="stroke:#181818;stroke-width:0.5;" width="100.0257" x="76.31" y="210.34"/><ellipse cx="91.31" cy="226.34" fill="#EB937F" rx="11" ry="11" style="stroke:#181818;stroke-width:1;"/><path d="M87.6694,232.84 L87.6694,220.6994 L95.3256,220.6994 L95.3256,222.8244 L90.0444,222.8244 L90.0444,225.4806 L95.06,225.4806 L95.06,227.6056 L90.0444,227.6056 L90.0444,230.715 L95.3256,230.715 L95.3256,232.84 L87.6694,232.84 Z " fill="#000000"/><text fill="#000000" font-family="sans-serif" font-size="14" lengthAdjust="spacing" textLength="68.0257" x="105.31" y="231.772">Alineacion</text><line style="stroke:#181818;stroke-width:0.5;" x1="77.31" x2="175.3357" y1="242.34" y2="242.34"/><text fill="#000000" font-family="sans-serif" font-size="14" lengthAdjust="spacing" textLength="61.2078" x="82.31" y="261.3059">izquierda</text><text fill="#000000" font-family="sans-serif" font-size="14" lengthAdjust="spacing" textLength="53.4098" x="82.31" y="280.3739">derecha</text><text fill="#000000" font-family="sans-serif" font-size="14" lengthAdjust="spacing" textLength="58.4218" x="82.31" y="299.4418">centrada</text><line style="stroke:#181818;stroke-width:0.5;" x1="77.31" x2="175.3357" y1="307.5438" y2="307.5438"/></g><!--link Alineacion to Parrafo--><g class="link" data-entity-1="ent0009" data-entity-2="ent0003" data-link-type="association" data-source-line="38" id="lnk10"><path codeLine="38" d="M164.59,315.98 C179.18,335.82 195.38,357.85 208.29,375.4" fill="none" id="Alineacion-Parrafo" style="stroke:#181818;stroke-width:1;"/><text fill="#000000" font-family="sans-serif" font-size="13" lengthAdjust="spacing" textLength="7.436" x="161.8538" y="337.42">1</text><text fill="#000000" font-family="sans-serif" font-size="13" lengthAdjust="spacing" textLength="21.567" x="180.2255" y="363.6694">0..*</text></g><!--reverse link Documento to Parrafo--><g class="link" data-entity-1="ent0002" data-entity-2="ent0003" data-link-type="composition" data-source-line="40" id="lnk11"><path codeLine="40" d="M279.7696,307.5027 C268.6396,331.0927 258.81,351.94 247.69,375.5" fill="none" id="Documento-backto-Parrafo" style="stroke:#181818;stroke-width:1;"/><polygon fill="#181818" points="284.89,296.65,278.7122,300.3695,279.7696,307.5027,285.9474,303.7832,284.89,296.65" style="stroke:#181818;stroke-width:1;"/><text fill="#000000" font-family="sans-serif" font-size="13" lengthAdjust="spacing" textLength="7.436" x="274.4402" y="318.3938">1</text><text fill="#000000" font-family="sans-serif" font-size="13" lengthAdjust="spacing" textLength="21.567" x="227.7517" y="363.79">0..*</text></g><!--reverse link Parrafo to ParrafoTexto--><g class="link" data-entity-1="ent0003" data-entity-2="ent0004" data-link-type="extension" data-source-line="41" id="lnk12"><path codeLine="41" d="M205.8575,458.7513 C195.8575,477.1313 192.04,484.16 182.07,502.51" fill="none" id="Parrafo-backto-ParrafoTexto" style="stroke:#181818;stroke-width:1;"/><polygon fill="none" points="214.46,442.94,200.5871,455.8838,211.128,461.6188,214.46,442.94" style="stroke:#181818;stroke-width:1;"/></g><!--reverse link Parrafo to ParrafoImagen--><g class="link" data-entity-1="ent0003" data-entity-2="ent0005" data-link-type="extension" data-source-line="42" id="lnk13"><path codeLine="42" d="M276.9492,455.8247 C294.8792,474.2047 304.58,484.16 322.48,502.51" fill="none" id="Parrafo-backto-ParrafoImagen" style="stroke:#181818;stroke-width:1;"/><polygon fill="none" points="264.38,442.94,272.6543,460.0144,281.2441,451.6349,264.38,442.94" style="stroke:#181818;stroke-width:1;"/></g><!--reverse link ParrafoTexto to Cadena--><g class="link" data-entity-1="ent0004" data-entity-2="ent0006" data-link-type="composition" data-source-line="44" id="lnk14"><path codeLine="44" d="M140.068,580.4808 C129.778,598.8608 122.86,611.23 112.59,629.58" fill="none" id="ParrafoTexto-backto-Cadena" style="stroke:#181818;stroke-width:1;"/><polygon fill="#181818" points="145.93,570.01,139.5087,573.2914,140.068,580.4808,146.4892,577.1994,145.93,570.01" style="stroke:#181818;stroke-width:1;"/></g><!--link Formato to Cadena--><g class="link" data-entity-1="ent0007" data-entity-2="ent0006" data-link-type="association" data-source-line="46" id="lnk15"><path codeLine="46" d="M91.62,150.82 C77.99,168.87 65.66,189.19 58.32,210.34 C6,361.24 28.86,412.72 58.32,569.68 C62.17,590.18 70.42,611.98 78.06,629.26" fill="none" id="Formato-Cadena" style="stroke:#181818;stroke-width:1;"/><text fill="#000000" font-family="sans-serif" font-size="13" lengthAdjust="spacing" textLength="21.84" x="63.2647" y="172.1845">0..1</text><text fill="#000000" font-family="sans-serif" font-size="13" lengthAdjust="spacing" textLength="7.163" x="67.1854" y="617.8684">*</text></g><!--link Formato to Documento--><g class="link" data-entity-1="ent0007" data-entity-2="ent0002" data-link-type="association" data-source-line="48" id="lnk16"><path codeLine="48" d="M215.46,150.67 C236.04,177.65 258.52,207.12 275.16,228.95" fill="none" id="Formato-Documento" style="stroke:#181818;stroke-width:1;"/><text fill="#000000" font-family="sans-serif" font-size="13" lengthAdjust="spacing" textLength="7.436" x="213.3068" y="172.2733">1</text><text fill="#000000" font-family="sans-serif" font-size="13" lengthAdjust="spacing" textLength="7.163" x="262.5339" y="217.5505">*</text></g><!--link ParrafoImagen to Imagen--><g class="link" data-entity-1="ent0005" data-entity-2="ent0008" data-link-type="association" data-source-line="50" id="lnk17"><path codeLine="50" d="M354.32,570.01 C354.32,591.72 354.32,619.65 354.32,639.05" fill="none" id="ParrafoImagen-Imagen" style="stroke:#181818;stroke-width:1;"/><text fill="#000000" font-family="sans-serif" font-size="13" lengthAdjust="spacing" textLength="21.567" x="331.499" y="591.5163">0..*</text><text fill="#000000" font-family="sans-serif" font-size="13" lengthAdjust="spacing" textLength="7.436" x="346.4369" y="627.2618">1</text></g><?plantuml-src RL7BIWH13BptLuGvBioYrs5P44LOy23e3sHwicF3Jbhx8UhglzklUQpZBQbKfK95dj1QkDFI3yHEmra0rF2Ank1HsmOUb7MxnzpknO_0rZg3qe5CmZ8fCZmf9fHASmCtKnrKueBzJ1-JayIE64UZszJjLuh3W3rnaQZKD931cPl5urxDZbXrke4dPnJtC-zUcm6TpZoctYY73RHQdmWvYxsnwlqFQ7rhy1FZnYLyz24tcbmYv7103ZJ5RdRDrvuZGEo7HJxfOlNrvXMP3aFTaI7v4YiPTXiCO50j1DLr1NKDrTLskwd6Z8IOlnW9cpLZ_DRkEyoMp_XtKl8L5rzBQtFIGfGaaqqvARYjflDekd3QMZvR3esqmCxWBm00?></g></svg>